<svg id="Emblem" xmlns="http://www.w3.org/2000/svg" xmlns:xlink="http://www.w3.org/1999/xlink" width="556" height="586" viewBox="0 0 556 586">
  <defs>
    <linearGradient id="linear-gradient" y1="0.5" x2="1" y2="0.5" gradientUnits="objectBoundingBox">
      <stop offset="0" stop-color="#04638b"/>
      <stop offset="1" stop-color="#2ebada"/>
    </linearGradient>
    <linearGradient id="linear-gradient-2" x1="0.012" y1="0.5" x2="0.876" y2="0.5" gradientUnits="objectBoundingBox">
      <stop offset="0" stop-color="#04638b"/>
      <stop offset="0.186" stop-color="#086c93"/>
      <stop offset="0.488" stop-color="#1484a9"/>
      <stop offset="0.864" stop-color="#26aacc"/>
      <stop offset="1" stop-color="#2ebada"/>
    </linearGradient>
    <linearGradient id="linear-gradient-3" y1="0.5" x2="1" y2="0.5" gradientUnits="objectBoundingBox">
      <stop offset="0.001" stop-color="#fff" stop-opacity="0"/>
      <stop offset="0.987" stop-color="#fff" stop-opacity="0.102"/>
    </linearGradient>
    <linearGradient id="linear-gradient-4" x1="0.107" y1="0.973" x2="0.82" y2="-0.08" gradientUnits="objectBoundingBox">
      <stop offset="0" stop-color="#37474f"/>
      <stop offset="1" stop-color="#788f9a"/>
    </linearGradient>
    <linearGradient id="linear-gradient-5" x1="0.542" y1="0.434" x2="0.168" y2="0.892" gradientUnits="objectBoundingBox">
      <stop offset="0" stop-opacity="0"/>
      <stop offset="0.987" stop-opacity="0.102"/>
    </linearGradient>
    <radialGradient id="radial-gradient" cx="0.15" cy="0.573" r="0.99" gradientUnits="objectBoundingBox">
      <stop offset="0.013" stop-color="#fff" stop-opacity="0.6"/>
      <stop offset="1" stop-color="#fff" stop-opacity="0"/>
    </radialGradient>
    <linearGradient id="linear-gradient-6" y1="0.499" x2="1" y2="0.499" gradientUnits="objectBoundingBox">
      <stop offset="0.001" stop-color="#fff" stop-opacity="0.051"/>
      <stop offset="0.987" stop-color="#fff" stop-opacity="0.149"/>
    </linearGradient>
    <linearGradient id="linear-gradient-7" x1="0.04" y1="0.939" x2="0.785" y2="0.015" gradientUnits="objectBoundingBox">
      <stop offset="0.001" stop-color="#fff" stop-opacity="0.051"/>
      <stop offset="0.957" stop-color="#fff" stop-opacity="0.149"/>
      <stop offset="0.987" stop-color="#fff" stop-opacity="0.102"/>
    </linearGradient>
    <linearGradient id="linear-gradient-43" x1="0.163" y1="0.917" x2="0.985" y2="-0.173" gradientUnits="objectBoundingBox">
      <stop offset="0" stop-color="#fff"/>
      <stop offset="1" stop-color="#fafafa" stop-opacity="0"/>
    </linearGradient>
  </defs>
  <rect id="Rectangle_4053" data-name="Rectangle 4053" width="556" height="586" fill="none"/>
  <g id="Group_200" data-name="Group 200" transform="translate(9.045 5.951)" opacity="0.08" style="mix-blend-mode: luminosity;isolation: isolate">
    <g id="Group_193" data-name="Group 193" transform="translate(94.876 347.621) rotate(-120)">
      <ellipse id="Ellipse_28" data-name="Ellipse 28" cx="31.008" cy="30.942" rx="31.008" ry="30.942" transform="translate(92.253 55.9)" fill="url(#linear-gradient)"/>
      <path id="Path_7201" data-name="Path 7201" d="M3.2.006C2.678.039,2.156.038,1.6.037,1.078.036.522.035,0,0Z" transform="translate(51.762 123.978)" fill="none"/>
      <path id="Path_7202" data-name="Path 7202" d="M0,0,3.164.006c-.521.033-1.042.032-1.6.031C1.077.036.522.035,0,0Z" transform="translate(51.762 123.978)" fill="none"/>
      <path id="Path_7203" data-name="Path 7203" d="M189.841,55.2a40,40,0,0,1-40.126,40.04l-109.44-.2A40.358,40.358,0,0,1,0,54.849,39.91,39.91,0,0,1,4.626,36.121l.034-.036,1.421-2.5h0L25.458,0a30.6,30.6,0,0,0-3.07,13.494A28.734,28.734,0,0,0,22.85,18.7,31.14,31.14,0,0,0,51.8,44.4c.521.035,1.043.036,1.6.037.521,0,1.077,0,1.6-.031l133.435.247A40.5,40.5,0,0,1,189.841,55.2Z" transform="translate(0 79.616)" fill="url(#linear-gradient-2)"/>
      <ellipse id="Ellipse_29" data-name="Ellipse 29" cx="28.186" cy="28.126" rx="28.186" ry="28.126" transform="translate(95.075 58.716)" fill="url(#linear-gradient-3)"/>
      <path id="Path_7204" data-name="Path 7204" d="M100.873,12.026,62.257,78.962,60.073,82.74,46.416,106.416l-9.879,17.124-.278.451-6.85-.013A31.007,31.007,0,0,1,.462,98.279,32.187,32.187,0,0,1,0,93.073,30.823,30.823,0,0,1,3.07,79.581v-.035l2.149-3.709.035-.034L36.972,20.79l.034-.069v-.034l.035-.035.8-1.386A40.04,40.04,0,0,1,72.2,0,40.559,40.559,0,0,1,100.873,12.026Z" transform="translate(22.318 0)" fill="url(#linear-gradient-4)"/>
      <path id="Path_7205" data-name="Path 7205" d="M55.636,36.784,46.415,52.8,36.537,69.922l-.278.451-6.851-.013A31.006,31.006,0,0,1,.462,44.662,32.261,32.261,0,0,1,0,39.456,30.832,30.832,0,0,1,3.07,25.963v-.034L5.219,22.22l.035-.035L18.045,0a31.539,31.539,0,0,0-.3,4.476,32.808,32.808,0,0,0,32.75,32.68A28.046,28.046,0,0,0,55.636,36.784Z" transform="translate(22.353 53.617)" fill="url(#linear-gradient-5)"/>
      <g id="Group_181" data-name="Group 181" transform="translate(21.427 79.65)">
        <path id="Path_7206" data-name="Path 7206" d="M0,0Z" transform="translate(162.681 75.944)" fill="#fff"/>
        <path id="Path_7207" data-name="Path 7207" d="M167.485,60.511a33.069,33.069,0,0,0,.129-5.24c-.072-1.25-.214-2.5-.355-3.749a37.391,37.391,0,0,0-1.052-5.138l-.1-.312c0-.035-.035-.07-.1-.174h-.7L35.8,45.657a47.491,47.491,0,0,1-4.974-.009,49.318,49.318,0,0,1-6.365-.88,31.537,31.537,0,0,1-9.849-3.939A29.206,29.206,0,0,1,7.5,34.881,31.772,31.772,0,0,1,1.469,24.7,23.732,23.732,0,0,1,.242,19.842a40.75,40.75,0,0,1-.219-5.83A36.685,36.685,0,0,1,.6,7.837c.207-1.041.448-2.082.655-3.122V4.68l1.005-1.7h0L4,0A30.607,30.607,0,0,0,.926,13.493,28.683,28.683,0,0,0,1.388,18.7,30.91,30.91,0,0,0,13.666,38.432h0a30.98,30.98,0,0,0,16.669,5.931c.522.035,1.043.036,1.6.037.522,0,1.079,0,1.6-.031l133.436.248A39.323,39.323,0,0,1,168.415,55.2a40.048,40.048,0,0,1-5.561,20.463c.035-.035.035-.1.069-.139A42.284,42.284,0,0,0,166.8,65.159C167.108,63.6,167.314,62.037,167.485,60.511Z" transform="translate(0 0)" fill="url(#radial-gradient)"/>
      </g>
      <path id="Path_7208" data-name="Path 7208" d="M7.625,0c0,1.631-.029,3.3.009,4.927A42.225,42.225,0,0,0,8.871,15.34,27.277,27.277,0,0,0,20.028,30.7a39.537,39.537,0,0,0,12.147,5.472,50.578,50.578,0,0,0,7.514,1.471c1.426.175,2.887.283,4.348.32,4.278.077,8.521.119,12.8.127q43.087.03,86.14.091c12.485.023,24.934.081,37.419.138l.835,0a7.374,7.374,0,0,0-.277.728,39.639,39.639,0,0,1-7.213,10.537A35.428,35.428,0,0,1,155.046,59.82a34.835,34.835,0,0,1-7.336.75q-55.4-.1-110.8-.24a35.09,35.09,0,0,1-24.639-9.693A38.252,38.252,0,0,1,.691,30a32.665,32.665,0,0,1-.6-4.825A35.877,35.877,0,0,1,5.06,4.506C5.892,3.051,6.724,1.63,7.556.174,7.555.035,7.59,0,7.625,0Z" transform="translate(3.009 111.583)" fill="url(#linear-gradient-6)"/>
      <path id="Path_7209" data-name="Path 7209" d="M9.4,112.034a20.731,20.731,0,0,1-3.309-2.921A21.864,21.864,0,0,1,.579,98.1,28.822,28.822,0,0,1,.043,90.78,50.585,50.585,0,0,1,1.59,80.789,3.4,3.4,0,0,1,2,79.818Q11.468,63.439,20.9,47.06q8.266-14.3,16.5-28.563A36.589,36.589,0,0,1,52.463,4.02,34.871,34.871,0,0,1,63.271.535,39.138,39.138,0,0,1,85.185,3.213a36.568,36.568,0,0,1,8.948,5.673c.1.1.209.173.383.348l-1.252,0a48.089,48.089,0,0,0-14.74,2.332,36.947,36.947,0,0,0-14.8,9.1,41.933,41.933,0,0,0-6.556,8.7Q46.51,47.871,35.817,66.347,26.874,81.895,17.9,97.406c-2.669,4.645-5.373,9.29-8.042,13.935A6.013,6.013,0,0,0,9.4,112.034Z" transform="translate(24.849 2.194)" fill="url(#linear-gradient-7)"/>
    </g>
    <g id="Group_182" data-name="Group 182" transform="translate(304.515 109.45)">
      <ellipse id="Ellipse_28-2" data-name="Ellipse 28" cx="30.851" cy="30.984" rx="30.851" ry="30.984" transform="translate(92.102 56.084)" fill="url(#linear-gradient)"/>
      <path id="Path_7201-2" data-name="Path 7201" d="M1082.789,1373.9c-.52.034-1.04.034-1.594.034-.52,0-1.074,0-1.594-.034Z" transform="translate(-1027.986 -1249.444)" fill="none"/>
      <path id="Path_7202-2" data-name="Path 7202" d="M1079.6,1373.9h3.153c-.518.034-1.038.034-1.594.034C1080.674,1373.935,1080.121,1373.935,1079.6,1373.9Z" transform="translate(-1027.986 -1249.444)" fill="none"/>
      <path id="Path_7203-2" data-name="Path 7203" d="M1119.931,1301.274a40.177,40.177,0,0,1-40.071,40.245H970.772a40.177,40.177,0,0,1-40.072-40.245,40.36,40.36,0,0,1,4.646-18.8l.034-.036,1.422-2.506h0l19.377-33.734a30.947,30.947,0,0,0-3.085,13.543,28.971,28.971,0,0,0,.451,5.221,30.963,30.963,0,0,0,28.806,25.728c.52.034,1.04.034,1.6.034.519,0,1.074,0,1.594-.034h133.006A40.8,40.8,0,0,1,1119.931,1301.274Z" transform="translate(-930.7 -1166.2)" fill="url(#linear-gradient-2)"/>
      <ellipse id="Ellipse_29-2" data-name="Ellipse 29" cx="28.043" cy="28.164" rx="28.043" ry="28.164" transform="translate(94.91 58.904)" fill="url(#linear-gradient-3)"/>
      <path id="Path_7204-2" data-name="Path 7204" d="M1095.8,1028.412l-38.616,67.224-2.184,3.793-13.658,23.779-9.879,17.2-.277.453h-6.828a30.831,30.831,0,0,1-28.807-25.726,32.534,32.534,0,0,1-.451-5.222,31.163,31.163,0,0,1,3.086-13.542v-.035l2.149-3.725.035-.034,31.718-55.249.034-.069v-.035l.035-.034.8-1.393a39.987,39.987,0,0,1,62.846-7.38Z" transform="translate(-972.776 -1016.401)" fill="url(#linear-gradient-4)"/>
      <path id="Path_7205-2" data-name="Path 7205" d="M1050.663,1208.033l-9.22,16.083-9.879,17.2-.278.453h-6.828a30.83,30.83,0,0,1-28.806-25.726,32.533,32.533,0,0,1-.451-5.222,31.166,31.166,0,0,1,3.086-13.542v-.034l2.149-3.725.035-.036,12.791-22.28a31.815,31.815,0,0,0-.312,4.49,32.661,32.661,0,0,0,32.585,32.725A27.851,27.851,0,0,0,1050.663,1208.033Z" transform="translate(-972.842 -1117.31)" fill="url(#linear-gradient-5)"/>
      <g id="Group_181-2" data-name="Group 181" transform="translate(21.431 80.035)">
        <path id="Path_7206-2" data-name="Path 7206" d="M1460,1464.3Z" transform="translate(-1297.955 -1388.407)" fill="#fff"/>
        <path id="Path_7207-2" data-name="Path 7207" d="M1159.389,1306.7a33.534,33.534,0,0,0,.139-5.257c-.07-1.254-.209-2.507-.347-3.76a37.705,37.705,0,0,0-1.04-5.152c-.036-.1-.069-.209-.1-.312,0-.035-.035-.071-.1-.175H1028.151a46.873,46.873,0,0,1-4.958,0,48.918,48.918,0,0,1-6.343-.87,31.237,31.237,0,0,1-9.811-3.934,29.023,29.023,0,0,1-7.071-5.954,31.774,31.774,0,0,1-6-10.2,23.9,23.9,0,0,1-1.213-4.874,41.213,41.213,0,0,1-.207-5.849,37.1,37.1,0,0,1,.589-6.2c.208-1.045.451-2.09.659-3.134V1251l1.006-1.706h0l1.733-2.995a30.937,30.937,0,0,0-3.086,13.542,28.909,28.909,0,0,0,.451,5.221,30.887,30.887,0,0,0,12.2,19.775h0a30.658,30.658,0,0,0,16.6,5.919c.519.034,1.04.034,1.594.034.52,0,1.075,0,1.594-.034H1158.9a39.6,39.6,0,0,1,1.422,10.617,40.487,40.487,0,0,1-5.581,20.54c.034-.035.034-.1.068-.139a42.713,42.713,0,0,0,3.882-10.409C1159.007,1309.8,1159.215,1308.234,1159.389,1306.7Z" transform="translate(-992.525 -1246.301)" fill="url(#radial-gradient)"/>
      </g>
      <path id="Path_7208-2" data-name="Path 7208" d="M947,1338.4c0,1.636-.035,3.307,0,4.943a42.559,42.559,0,0,0,1.213,10.444,27.217,27.217,0,0,0,11.092,15.386,39.1,39.1,0,0,0,12.1,5.467,49.9,49.9,0,0,0,7.487,1.462c1.421.173,2.878.279,4.333.314,4.264.069,8.493.1,12.757.1q42.948-.051,85.863-.069c12.445,0,24.854.035,37.3.069h.832a7.488,7.488,0,0,0-.277.731,39.973,39.973,0,0,1-7.21,10.584,35.408,35.408,0,0,1-18.65,10.3,34.6,34.6,0,0,1-7.314.767q-55.22,0-110.44-.036a34.729,34.729,0,0,1-24.542-9.678,38.265,38.265,0,0,1-11.508-20.679,32.855,32.855,0,0,1-.589-4.839,36.268,36.268,0,0,1,4.992-20.748c.832-1.462,1.664-2.889,2.5-4.352C946.927,1338.436,946.961,1338.4,947,1338.4Z" transform="translate(-936.353 -1226.302)" fill="url(#linear-gradient-6)"/>
      <path id="Path_7209-2" data-name="Path 7209" d="M1011.7,1135.233a20.639,20.639,0,0,1-3.293-2.924,21.9,21.9,0,0,1-5.476-11.037,29.059,29.059,0,0,1-.52-7.344,51.043,51.043,0,0,1,1.56-10.028,3.426,3.426,0,0,1,.416-.974q9.462-16.45,18.892-32.9,8.266-14.36,16.5-28.686a36.772,36.772,0,0,1,15.044-14.552,34.707,34.707,0,0,1,10.78-3.517,38.743,38.743,0,0,1,21.838,2.646,36.228,36.228,0,0,1,8.909,5.675c.1.1.208.173.381.348h-1.248a47.739,47.739,0,0,0-14.7,2.367,36.966,36.966,0,0,0-14.766,9.155,42.305,42.305,0,0,0-6.552,8.738q-10.659,18.59-21.354,37.146-8.943,15.613-17.921,31.192c-2.669,4.665-5.373,9.33-8.042,13.995A6.063,6.063,0,0,0,1011.7,1135.233Z" transform="translate(-977.524 -1020.523)" fill="url(#linear-gradient-7)"/>
    </g>
    <g id="Group_194" data-name="Group 194" transform="translate(130.527 164.457) rotate(-60)">
      <ellipse id="Ellipse_28-3" data-name="Ellipse 28" cx="30.893" cy="30.827" rx="30.893" ry="30.827" transform="translate(92.546 55.908)" fill="url(#linear-gradient)"/>
      <path id="Path_7201-3" data-name="Path 7201" d="M3.2,0C2.678.035,2.156.036,1.6.037,1.078.038.522.039,0,.006Z" transform="translate(51.801 124.13)" fill="none"/>
      <path id="Path_7202-3" data-name="Path 7202" d="M0,.006,3.163,0c-.521.035-1.042.036-1.6.037C1.077.038.522.039,0,.006Z" transform="translate(51.801 124.13)" fill="none"/>
      <path id="Path_7203-3" data-name="Path 7203" d="M189.842,54.592a40.358,40.358,0,0,1-40.275,40.19l-109.44.2A40,40,0,0,1,0,54.945,40.127,40.127,0,0,1,4.7,36.2l.034-.035,1.431-2.5h0L25.663,0a30.759,30.759,0,0,0-3.12,13.506,28.671,28.671,0,0,0,.443,5.2A30.847,30.847,0,0,0,51.836,44.3c.521.033,1.043.032,1.6.031.521,0,1.078,0,1.6-.037l133.436-.248A40.387,40.387,0,0,1,189.842,54.592Z" transform="translate(0 79.872)" fill="url(#linear-gradient-2)"/>
      <ellipse id="Ellipse_29-3" data-name="Ellipse 29" cx="28.081" cy="28.021" rx="28.081" ry="28.021" transform="translate(95.358 58.713)" fill="url(#linear-gradient-3)"/>
      <path id="Path_7204-3" data-name="Path 7204" d="M101.175,11.919,62.31,79l-2.2,3.785L46.366,106.512l-9.943,17.16-.279.452-6.85.013A30.716,30.716,0,0,1,.442,98.546,32.169,32.169,0,0,1,0,93.342a30.973,30.973,0,0,1,3.12-13.5V79.8l2.163-3.717.035-.034L37.241,20.92l.034-.069v-.035l.035-.035.8-1.389a40.3,40.3,0,0,1,63.063-7.474Z" transform="translate(22.473 0)" fill="url(#linear-gradient-4)"/>
      <path id="Path_7205-3" data-name="Path 7205" d="M55.647,36.644l-9.28,16.049-9.943,17.16-.279.451-6.851.013A30.713,30.713,0,0,1,.443,44.728,32.188,32.188,0,0,1,0,39.524a30.976,30.976,0,0,1,3.121-13.5v-.035l2.163-3.717.035-.035L18.192,0a31.562,31.562,0,0,0-.322,4.477A32.515,32.515,0,0,0,50.5,37.035,28.048,28.048,0,0,0,55.647,36.644Z" transform="translate(22.508 53.817)" fill="url(#linear-gradient-5)"/>
      <g id="Group_181-3" data-name="Group 181" transform="translate(21.573 79.907)">
        <path id="Path_7206-3" data-name="Path 7206" d="M0,0Z" transform="translate(162.457 75.354)" fill="#fff"/>
        <path id="Path_7207-3" data-name="Path 7207" d="M167.319,59.9a33.123,33.123,0,0,0,.149-5.241c-.068-1.249-.2-2.5-.341-3.747a37.288,37.288,0,0,0-1.034-5.134l-.1-.311c0-.035-.035-.07-.1-.174h-.7l-129.505.241a47.434,47.434,0,0,1-4.973.009,49.426,49.426,0,0,1-6.362-.856,31.315,31.315,0,0,1-9.835-3.9,28.893,28.893,0,0,1-7.083-5.92,31.48,31.48,0,0,1-6-10.156A23.622,23.622,0,0,1,.226,19.856a40.717,40.717,0,0,1-.2-5.83,36.753,36.753,0,0,1,.6-6.177c.21-1.042.456-2.084.666-3.125V4.69l1.012-1.7h0L4.054,0A30.749,30.749,0,0,0,.933,13.5a28.65,28.65,0,0,0,.443,5.2A30.619,30.619,0,0,0,13.58,38.4h0a30.773,30.773,0,0,0,16.647,5.869c.522.033,1.043.032,1.6.031.522,0,1.078,0,1.6-.037l133.436-.248a39.192,39.192,0,0,1,1.407,10.58,40.272,40.272,0,0,1-5.637,20.484c.035-.035.035-.1.069-.139a42.575,42.575,0,0,0,3.914-10.383C166.931,62.992,167.143,61.43,167.319,59.9Z" transform="translate(0 0)" fill="url(#radial-gradient)"/>
      </g>
      <path id="Path_7208-3" data-name="Path 7208" d="M7.71,0c0,1.631-.041,3.3-.009,4.927A42.106,42.106,0,0,0,8.9,15.335,27,27,0,0,0,20,30.651a39.2,39.2,0,0,0,12.127,5.427,50.307,50.307,0,0,0,7.509,1.443c1.425.17,2.886.273,4.346.3,4.278.061,8.52.088,12.8.08q43.087-.132,86.14-.229c12.485-.023,24.934-.012,37.419,0l.835,0a7.445,7.445,0,0,0-.28.729,40.042,40.042,0,0,1-7.253,10.564,35.751,35.751,0,0,1-18.729,10.305,34.917,34.917,0,0,1-7.339.778q-55.4.1-110.8.171a34.839,34.839,0,0,1-24.6-9.6A37.907,37.907,0,0,1,.664,30.029a32.567,32.567,0,0,1-.582-4.823A36.052,36.052,0,0,1,5.128,4.516C5.965,3.057,6.8,1.633,7.64.174,7.64.034,7.675,0,7.71,0Z" transform="translate(3.01 111.895)" fill="url(#linear-gradient-6)"/>
      <path id="Path_7209-3" data-name="Path 7209" d="M9.33,112.259a20.5,20.5,0,0,1-3.3-2.909A21.679,21.679,0,0,1,.557,98.36a28.78,28.78,0,0,1-.508-7.321,50.753,50.753,0,0,1,1.584-10,3.427,3.427,0,0,1,.419-.972q9.524-16.415,19.015-32.829,8.319-14.329,16.606-28.624A36.992,36.992,0,0,1,52.792,4.084,35.1,35.1,0,0,1,63.614.559a39.071,39.071,0,0,1,21.9,2.6A36.206,36.206,0,0,1,94.444,8.8c.1.1.208.172.382.346l-1.252,0a48.254,48.254,0,0,0-14.749,2.387,37.307,37.307,0,0,0-14.831,9.153A42.437,42.437,0,0,0,57.4,29.407Q46.676,47.957,35.914,66.473q-9,15.58-18.037,31.125c-2.686,4.655-5.407,9.311-8.094,13.965A6.1,6.1,0,0,0,9.33,112.259Z" transform="translate(24.997 2.194)" fill="url(#linear-gradient-7)"/>
    </g>
    <g id="Group_196" data-name="Group 196" transform="translate(444.401 233.541) rotate(60)">
      <ellipse id="Ellipse_28-4" data-name="Ellipse 28" cx="31.008" cy="30.942" rx="31.008" ry="30.942" transform="translate(92.253 55.9)" fill="url(#linear-gradient)"/>
      <path id="Path_7201-4" data-name="Path 7201" d="M3.2.006C2.678.039,2.156.038,1.6.037,1.078.036.522.035,0,0Z" transform="translate(51.762 123.978)" fill="none"/>
      <path id="Path_7202-4" data-name="Path 7202" d="M0,0,3.164.006c-.521.033-1.042.032-1.6.031C1.077.036.522.035,0,0Z" transform="translate(51.762 123.978)" fill="none"/>
      <path id="Path_7203-4" data-name="Path 7203" d="M189.841,55.2a40,40,0,0,1-40.126,40.04l-109.44-.2A40.358,40.358,0,0,1,0,54.849,39.91,39.91,0,0,1,4.626,36.121l.034-.036,1.421-2.5h0L25.458,0a30.6,30.6,0,0,0-3.07,13.494A28.734,28.734,0,0,0,22.85,18.7,31.14,31.14,0,0,0,51.8,44.4c.521.035,1.043.036,1.6.037.521,0,1.077,0,1.6-.031l133.435.247A40.5,40.5,0,0,1,189.841,55.2Z" transform="translate(0 79.616)" fill="url(#linear-gradient-2)"/>
      <ellipse id="Ellipse_29-4" data-name="Ellipse 29" cx="28.186" cy="28.126" rx="28.186" ry="28.126" transform="translate(95.075 58.716)" fill="url(#linear-gradient-3)"/>
      <path id="Path_7204-4" data-name="Path 7204" d="M100.873,12.026,62.257,78.962,60.073,82.74,46.416,106.416l-9.879,17.124-.278.451-6.85-.013A31.007,31.007,0,0,1,.462,98.279,32.187,32.187,0,0,1,0,93.073,30.823,30.823,0,0,1,3.07,79.581v-.035l2.149-3.709.035-.034L36.972,20.79l.034-.069v-.034l.035-.035.8-1.386A40.04,40.04,0,0,1,72.2,0,40.559,40.559,0,0,1,100.873,12.026Z" transform="translate(22.318 0)" fill="url(#linear-gradient-4)"/>
      <path id="Path_7205-4" data-name="Path 7205" d="M55.636,36.784,46.415,52.8,36.537,69.922l-.278.451-6.851-.013A31.006,31.006,0,0,1,.462,44.662,32.261,32.261,0,0,1,0,39.456,30.832,30.832,0,0,1,3.07,25.963v-.034L5.219,22.22l.035-.035L18.045,0a31.539,31.539,0,0,0-.3,4.476,32.808,32.808,0,0,0,32.75,32.68A28.046,28.046,0,0,0,55.636,36.784Z" transform="translate(22.353 53.617)" fill="url(#linear-gradient-5)"/>
      <g id="Group_181-4" data-name="Group 181" transform="translate(21.427 79.65)">
        <path id="Path_7206-4" data-name="Path 7206" d="M0,0Z" transform="translate(162.681 75.944)" fill="#fff"/>
        <path id="Path_7207-4" data-name="Path 7207" d="M167.485,60.511a33.069,33.069,0,0,0,.129-5.24c-.072-1.25-.214-2.5-.355-3.749a37.391,37.391,0,0,0-1.052-5.138l-.1-.312c0-.035-.035-.07-.1-.174h-.7L35.8,45.657a47.491,47.491,0,0,1-4.974-.009,49.318,49.318,0,0,1-6.365-.88,31.537,31.537,0,0,1-9.849-3.939A29.206,29.206,0,0,1,7.5,34.881,31.772,31.772,0,0,1,1.469,24.7,23.732,23.732,0,0,1,.242,19.842a40.75,40.75,0,0,1-.219-5.83A36.685,36.685,0,0,1,.6,7.837c.207-1.041.448-2.082.655-3.122V4.68l1.005-1.7h0L4,0A30.607,30.607,0,0,0,.926,13.493,28.683,28.683,0,0,0,1.388,18.7,30.91,30.91,0,0,0,13.666,38.432h0a30.98,30.98,0,0,0,16.669,5.931c.522.035,1.043.036,1.6.037.522,0,1.079,0,1.6-.031l133.436.248A39.323,39.323,0,0,1,168.415,55.2a40.048,40.048,0,0,1-5.561,20.463c.035-.035.035-.1.069-.139A42.284,42.284,0,0,0,166.8,65.159C167.108,63.6,167.314,62.037,167.485,60.511Z" transform="translate(0 0)" fill="url(#radial-gradient)"/>
      </g>
      <path id="Path_7208-4" data-name="Path 7208" d="M7.625,0c0,1.631-.029,3.3.009,4.927A42.225,42.225,0,0,0,8.871,15.34,27.277,27.277,0,0,0,20.028,30.7a39.537,39.537,0,0,0,12.147,5.472,50.578,50.578,0,0,0,7.514,1.471c1.426.175,2.887.283,4.348.32,4.278.077,8.521.119,12.8.127q43.087.03,86.14.091c12.485.023,24.934.081,37.419.138l.835,0a7.374,7.374,0,0,0-.277.728,39.639,39.639,0,0,1-7.213,10.537A35.428,35.428,0,0,1,155.046,59.82a34.835,34.835,0,0,1-7.336.75q-55.4-.1-110.8-.24a35.09,35.09,0,0,1-24.639-9.693A38.252,38.252,0,0,1,.691,30a32.665,32.665,0,0,1-.6-4.825A35.877,35.877,0,0,1,5.06,4.506C5.892,3.051,6.724,1.63,7.556.174,7.555.035,7.59,0,7.625,0Z" transform="translate(3.009 111.583)" fill="url(#linear-gradient-6)"/>
      <path id="Path_7209-4" data-name="Path 7209" d="M9.4,112.034a20.731,20.731,0,0,1-3.309-2.921A21.864,21.864,0,0,1,.579,98.1,28.822,28.822,0,0,1,.043,90.78,50.585,50.585,0,0,1,1.59,80.789,3.4,3.4,0,0,1,2,79.818Q11.468,63.439,20.9,47.06q8.266-14.3,16.5-28.563A36.589,36.589,0,0,1,52.463,4.02,34.871,34.871,0,0,1,63.271.535,39.138,39.138,0,0,1,85.185,3.213a36.568,36.568,0,0,1,8.948,5.673c.1.1.209.173.383.348l-1.252,0a48.089,48.089,0,0,0-14.74,2.332,36.947,36.947,0,0,0-14.8,9.1,41.933,41.933,0,0,0-6.556,8.7Q46.51,47.871,35.817,66.347,26.874,81.895,17.9,97.406c-2.669,4.645-5.373,9.29-8.042,13.935A6.013,6.013,0,0,0,9.4,112.034Z" transform="translate(24.849 2.194)" fill="url(#linear-gradient-7)"/>
    </g>
    <g id="Group_197" data-name="Group 197" transform="translate(228.111 471.376) rotate(180)">
      <ellipse id="Ellipse_28-5" data-name="Ellipse 28" cx="30.851" cy="30.984" rx="30.851" ry="30.984" transform="translate(92.102 56.084)" fill="url(#linear-gradient)"/>
      <path id="Path_7201-5" data-name="Path 7201" d="M3.189,0c-.52.034-1.04.034-1.595.034C1.074.034.52.034,0,0Z" transform="translate(51.615 124.457)" fill="none"/>
      <path id="Path_7202-5" data-name="Path 7202" d="M0,0H3.153C2.634.034,2.115.034,1.559.034,1.074.034.52.034,0,0Z" transform="translate(51.615 124.457)" fill="none"/>
      <path id="Path_7203-5" data-name="Path 7203" d="M189.231,55.074A40.177,40.177,0,0,1,149.16,95.318H40.072A40.178,40.178,0,0,1,0,55.074a40.364,40.364,0,0,1,4.646-18.8l.034-.035L6.1,33.735h0L25.478,0a30.948,30.948,0,0,0-3.085,13.544,29,29,0,0,0,.451,5.221A30.964,30.964,0,0,0,51.65,44.492c.52.034,1.04.034,1.595.034.519,0,1.074,0,1.594-.034H187.845A40.809,40.809,0,0,1,189.231,55.074Z" transform="translate(0 80.001)" fill="url(#linear-gradient-2)"/>
      <ellipse id="Ellipse_29-5" data-name="Ellipse 29" cx="28.043" cy="28.164" rx="28.043" ry="28.164" transform="translate(94.91 58.904)" fill="url(#linear-gradient-3)"/>
      <path id="Path_7204-5" data-name="Path 7204" d="M100.7,12.011,62.083,79.235,59.9,83.029,46.242,106.807,36.363,124l-.277.453H29.257A30.832,30.832,0,0,1,.451,98.73,32.512,32.512,0,0,1,0,93.508,31.164,31.164,0,0,1,3.085,79.966v-.035l2.149-3.725.035-.034L36.987,20.922l.034-.069v-.035l.035-.035.8-1.392A39.987,39.987,0,0,1,100.7,12.011Z" transform="translate(22.323)" fill="url(#linear-gradient-4)"/>
      <path id="Path_7205-5" data-name="Path 7205" d="M55.462,36.832,46.242,52.916l-9.879,17.2-.278.452H29.256A30.83,30.83,0,0,1,.451,44.839,32.533,32.533,0,0,1,0,39.618,31.17,31.17,0,0,1,3.085,26.075v-.034l2.149-3.725.035-.036L18.06,0a31.877,31.877,0,0,0-.312,4.491A32.661,32.661,0,0,0,50.332,37.215,27.8,27.8,0,0,0,55.462,36.832Z" transform="translate(22.358 53.89)" fill="url(#linear-gradient-5)"/>
      <g id="Group_181-5" data-name="Group 181" transform="translate(21.431 80.035)">
        <path id="Path_7206-5" data-name="Path 7206" d="M0,0Z" transform="translate(162.046 75.893)" fill="#fff"/>
        <path id="Path_7207-5" data-name="Path 7207" d="M166.864,60.4A33.457,33.457,0,0,0,167,55.144c-.07-1.254-.209-2.507-.347-3.76a37.7,37.7,0,0,0-1.04-5.152l-.1-.313c0-.035-.035-.071-.1-.174H35.626a46.993,46.993,0,0,1-4.958,0,48.955,48.955,0,0,1-6.343-.87,31.229,31.229,0,0,1-9.811-3.934,29.01,29.01,0,0,1-7.071-5.953,31.78,31.78,0,0,1-6-10.2A23.906,23.906,0,0,1,.233,19.913a41.167,41.167,0,0,1-.208-5.849,37.086,37.086,0,0,1,.589-6.2c.208-1.045.451-2.09.659-3.134V4.7L2.279,2.995h0L4.012,0A30.938,30.938,0,0,0,.927,13.543a28.927,28.927,0,0,0,.451,5.221,30.888,30.888,0,0,0,12.2,19.774h0a30.654,30.654,0,0,0,16.6,5.919c.52.034,1.04.034,1.594.034.52,0,1.075,0,1.595-.034H166.378A39.617,39.617,0,0,1,167.8,55.074a40.49,40.49,0,0,1-5.581,20.54c.035-.035.035-.1.069-.14a42.73,42.73,0,0,0,3.882-10.409C166.483,63.5,166.691,61.933,166.864,60.4Z" fill="url(#radial-gradient)"/>
      </g>
      <path id="Path_7208-5" data-name="Path 7208" d="M7.643,0c0,1.636-.035,3.307,0,4.943A42.562,42.562,0,0,0,8.856,15.387,27.217,27.217,0,0,0,19.948,30.774a39.109,39.109,0,0,0,12.1,5.467A49.961,49.961,0,0,0,39.533,37.7c1.421.173,2.877.278,4.333.314,4.264.069,8.493.1,12.757.1q42.948-.051,85.863-.069c12.445,0,24.854.035,37.3.069h.832a7.345,7.345,0,0,0-.277.731,39.973,39.973,0,0,1-7.21,10.584,35.414,35.414,0,0,1-18.649,10.3,34.59,34.59,0,0,1-7.314.766q-55.22,0-110.44-.035a34.729,34.729,0,0,1-24.542-9.679A38.262,38.262,0,0,1,.675,30.113a32.866,32.866,0,0,1-.589-4.839A36.263,36.263,0,0,1,5.077,4.526c.832-1.463,1.664-2.89,2.5-4.352C7.573.035,7.608,0,7.643,0Z" transform="translate(3 112.099)" fill="url(#linear-gradient-6)"/>
      <path id="Path_7209-5" data-name="Path 7209" d="M9.336,112.508a20.576,20.576,0,0,1-3.293-2.924A21.9,21.9,0,0,1,.566,98.548,29.076,29.076,0,0,1,.046,91.2a51.128,51.128,0,0,1,1.56-10.026,3.436,3.436,0,0,1,.416-.974q9.462-16.45,18.892-32.9,8.266-14.36,16.5-28.686A36.778,36.778,0,0,1,52.459,4.065,34.712,34.712,0,0,1,63.238.549,38.743,38.743,0,0,1,85.077,3.195,36.241,36.241,0,0,1,93.985,8.87c.1.1.208.173.382.348H93.119a47.733,47.733,0,0,0-14.7,2.367A36.968,36.968,0,0,0,63.655,20.74,42.313,42.313,0,0,0,57.1,29.479Q46.443,48.069,35.75,66.624,26.807,82.238,17.829,97.817c-2.669,4.665-5.373,9.33-8.042,13.995A6.113,6.113,0,0,0,9.336,112.508Z" transform="translate(24.843 2.201)" fill="url(#linear-gradient-7)"/>
    </g>
    <g id="Group_198" data-name="Group 198" transform="translate(404.93 411.224) rotate(120)">
      <ellipse id="Ellipse_28-6" data-name="Ellipse 28" cx="30.893" cy="30.827" rx="30.893" ry="30.827" transform="translate(92.546 55.908)" fill="url(#linear-gradient)"/>
      <path id="Path_7201-6" data-name="Path 7201" d="M3.2,0C2.678.035,2.156.036,1.6.037,1.078.038.522.039,0,.006Z" transform="translate(51.801 124.13)" fill="none"/>
      <path id="Path_7202-6" data-name="Path 7202" d="M0,.006,3.163,0c-.521.035-1.042.036-1.6.037C1.077.038.522.039,0,.006Z" transform="translate(51.801 124.13)" fill="none"/>
      <path id="Path_7203-6" data-name="Path 7203" d="M189.842,54.592a40.358,40.358,0,0,1-40.275,40.19l-109.44.2A40,40,0,0,1,0,54.945,40.127,40.127,0,0,1,4.7,36.2l.034-.035,1.431-2.5h0L25.663,0a30.759,30.759,0,0,0-3.12,13.506,28.671,28.671,0,0,0,.443,5.2A30.847,30.847,0,0,0,51.836,44.3c.521.033,1.043.032,1.6.031.521,0,1.078,0,1.6-.037l133.436-.248A40.387,40.387,0,0,1,189.842,54.592Z" transform="translate(0 79.872)" fill="url(#linear-gradient-2)"/>
      <ellipse id="Ellipse_29-6" data-name="Ellipse 29" cx="28.081" cy="28.021" rx="28.081" ry="28.021" transform="translate(95.358 58.713)" fill="url(#linear-gradient-3)"/>
      <path id="Path_7204-6" data-name="Path 7204" d="M101.175,11.919,62.31,79l-2.2,3.785L46.366,106.512l-9.943,17.16-.279.452-6.85.013A30.716,30.716,0,0,1,.442,98.546,32.169,32.169,0,0,1,0,93.342a30.973,30.973,0,0,1,3.12-13.5V79.8l2.163-3.717.035-.034L37.241,20.92l.034-.069v-.035l.035-.035.8-1.389a40.3,40.3,0,0,1,63.063-7.474Z" transform="translate(22.473 0)" fill="url(#linear-gradient-4)"/>
      <path id="Path_7205-6" data-name="Path 7205" d="M55.647,36.644l-9.28,16.049-9.943,17.16-.279.451-6.851.013A30.713,30.713,0,0,1,.443,44.728,32.188,32.188,0,0,1,0,39.524a30.976,30.976,0,0,1,3.121-13.5v-.035l2.163-3.717.035-.035L18.192,0a31.562,31.562,0,0,0-.322,4.477A32.515,32.515,0,0,0,50.5,37.035,28.048,28.048,0,0,0,55.647,36.644Z" transform="translate(22.508 53.817)" fill="url(#linear-gradient-5)"/>
      <g id="Group_181-6" data-name="Group 181" transform="translate(21.573 79.907)">
        <path id="Path_7206-6" data-name="Path 7206" d="M0,0Z" transform="translate(162.457 75.354)" fill="#fff"/>
        <path id="Path_7207-6" data-name="Path 7207" d="M167.319,59.9a33.123,33.123,0,0,0,.149-5.241c-.068-1.249-.2-2.5-.341-3.747a37.288,37.288,0,0,0-1.034-5.134l-.1-.311c0-.035-.035-.07-.1-.174h-.7l-129.505.241a47.434,47.434,0,0,1-4.973.009,49.426,49.426,0,0,1-6.362-.856,31.315,31.315,0,0,1-9.835-3.9,28.893,28.893,0,0,1-7.083-5.92,31.48,31.48,0,0,1-6-10.156A23.622,23.622,0,0,1,.226,19.856a40.717,40.717,0,0,1-.2-5.83,36.753,36.753,0,0,1,.6-6.177c.21-1.042.456-2.084.666-3.125V4.69l1.012-1.7h0L4.054,0A30.749,30.749,0,0,0,.933,13.5a28.65,28.65,0,0,0,.443,5.2A30.619,30.619,0,0,0,13.58,38.4h0a30.773,30.773,0,0,0,16.647,5.869c.522.033,1.043.032,1.6.031.522,0,1.078,0,1.6-.037l133.436-.248a39.192,39.192,0,0,1,1.407,10.58,40.272,40.272,0,0,1-5.637,20.484c.035-.035.035-.1.069-.139a42.575,42.575,0,0,0,3.914-10.383C166.931,62.992,167.143,61.43,167.319,59.9Z" transform="translate(0 0)" fill="url(#radial-gradient)"/>
      </g>
      <path id="Path_7208-6" data-name="Path 7208" d="M7.71,0c0,1.631-.041,3.3-.009,4.927A42.106,42.106,0,0,0,8.9,15.335,27,27,0,0,0,20,30.651a39.2,39.2,0,0,0,12.127,5.427,50.307,50.307,0,0,0,7.509,1.443c1.425.17,2.886.273,4.346.3,4.278.061,8.52.088,12.8.08q43.087-.132,86.14-.229c12.485-.023,24.934-.012,37.419,0l.835,0a7.445,7.445,0,0,0-.28.729,40.042,40.042,0,0,1-7.253,10.564,35.751,35.751,0,0,1-18.729,10.305,34.917,34.917,0,0,1-7.339.778q-55.4.1-110.8.171a34.839,34.839,0,0,1-24.6-9.6A37.907,37.907,0,0,1,.664,30.029a32.567,32.567,0,0,1-.582-4.823A36.052,36.052,0,0,1,5.128,4.516C5.965,3.057,6.8,1.633,7.64.174,7.64.034,7.675,0,7.71,0Z" transform="translate(3.01 111.895)" fill="url(#linear-gradient-6)"/>
      <path id="Path_7209-6" data-name="Path 7209" d="M9.33,112.259a20.5,20.5,0,0,1-3.3-2.909A21.679,21.679,0,0,1,.557,98.36a28.78,28.78,0,0,1-.508-7.321,50.753,50.753,0,0,1,1.584-10,3.427,3.427,0,0,1,.419-.972q9.524-16.415,19.015-32.829,8.319-14.329,16.606-28.624A36.992,36.992,0,0,1,52.792,4.084,35.1,35.1,0,0,1,63.614.559a39.071,39.071,0,0,1,21.9,2.6A36.206,36.206,0,0,1,94.444,8.8c.1.1.208.172.382.346l-1.252,0a48.254,48.254,0,0,0-14.749,2.387,37.307,37.307,0,0,0-14.831,9.153A42.437,42.437,0,0,0,57.4,29.407Q46.676,47.957,35.914,66.473q-9,15.58-18.037,31.125c-2.686,4.655-5.407,9.311-8.094,13.965A6.1,6.1,0,0,0,9.33,112.259Z" transform="translate(24.997 2.194)" fill="url(#linear-gradient-7)"/>
    </g>
  </g>
  <circle id="Ellipse_8" data-name="Ellipse 8" cx="237" cy="237" r="237" transform="translate(510.638 59.144) rotate(90)" fill="url(#linear-gradient-43)"/>
</svg>
