<svg id="Logo" xmlns="http://www.w3.org/2000/svg" xmlns:xlink="http://www.w3.org/1999/xlink" width="166.978" height="58.049" viewBox="0 0 166.978 58.049">
  <defs>
    <linearGradient id="linear-gradient" x1="-0.002" y1="6.763" x2="1" y2="6.763" gradientUnits="objectBoundingBox">
      <stop offset="0" stop-color="#37474f"/>
      <stop offset="1" stop-color="#465a64"/>
    </linearGradient>
    <linearGradient id="linear-gradient-2" x1="0" y1="6.763" x2="1" y2="6.763" xlink:href="#linear-gradient"/>
    <linearGradient id="linear-gradient-3" x1="0" y1="6.763" x2="1" y2="6.763" xlink:href="#linear-gradient"/>
    <linearGradient id="linear-gradient-4" x1="0" y1="6.671" x2="1" y2="6.671" xlink:href="#linear-gradient"/>
    <linearGradient id="linear-gradient-5" x1="0" y1="6.763" x2="1" y2="6.763" xlink:href="#linear-gradient"/>
    <linearGradient id="linear-gradient-6" x1="0" y1="6.763" x2="0.999" y2="6.763" xlink:href="#linear-gradient"/>
    <linearGradient id="linear-gradient-7" x1="0" y1="6.764" x2="1.001" y2="6.764" xlink:href="#linear-gradient"/>
    <linearGradient id="linear-gradient-8" x1="0.001" y1="6.763" x2="1.003" y2="6.763" xlink:href="#linear-gradient"/>
    <linearGradient id="linear-gradient-9" x1="0" y1="6.763" x2="1" y2="6.763" xlink:href="#linear-gradient"/>
    <linearGradient id="linear-gradient-10" x1="0.002" y1="6.73" x2="0.999" y2="6.73" xlink:href="#linear-gradient"/>
    <linearGradient id="linear-gradient-11" x1="0" y1="6.764" x2="1" y2="6.764" xlink:href="#linear-gradient"/>
    <linearGradient id="linear-gradient-12" x1="0" y1="6.763" x2="1" y2="6.763" xlink:href="#linear-gradient"/>
    <linearGradient id="linear-gradient-13" x1="0.001" y1="6.762" x2="1.001" y2="6.762" xlink:href="#linear-gradient"/>
    <linearGradient id="linear-gradient-14" x1="0.002" y1="6.73" x2="0.999" y2="6.73" xlink:href="#linear-gradient"/>
    <linearGradient id="linear-gradient-15" x1="0" y1="6.763" x2="1.001" y2="6.763" xlink:href="#linear-gradient"/>
    <linearGradient id="linear-gradient-16" x1="0" y1="6.764" x2="1" y2="6.764" xlink:href="#linear-gradient"/>
    <linearGradient id="linear-gradient-17" x1="0.003" y1="6.633" x2="1.004" y2="6.633" xlink:href="#linear-gradient"/>
    <linearGradient id="linear-gradient-18" x1="0" y1="6.671" x2="1" y2="6.671" xlink:href="#linear-gradient"/>
    <linearGradient id="linear-gradient-19" x1="0" y1="6.762" x2="1" y2="6.762" xlink:href="#linear-gradient"/>
    <linearGradient id="linear-gradient-20" x1="0.002" y1="6.717" x2="1.003" y2="6.717" xlink:href="#linear-gradient"/>
    <linearGradient id="linear-gradient-22" x1="0.002" y1="6.763" x2="1.004" y2="6.763" xlink:href="#linear-gradient"/>
    <linearGradient id="linear-gradient-24" x1="0" y1="6.763" x2="1" y2="6.763" xlink:href="#linear-gradient"/>
    <linearGradient id="linear-gradient-26" x1="0.5" y1="1.049" x2="0.5" y2="-0.09" gradientUnits="objectBoundingBox">
      <stop offset="0" stop-color="#37474f"/>
      <stop offset="1" stop-color="#788f9a"/>
    </linearGradient>
    <linearGradient id="linear-gradient-27" x1="0.213" y1="-0.121" x2="0.846" y2="1.16" gradientUnits="objectBoundingBox">
      <stop offset="0.003" stop-color="#fff" stop-opacity="0.051"/>
      <stop offset="0.989" stop-color="#fff" stop-opacity="0.4"/>
    </linearGradient>
    <linearGradient id="linear-gradient-28" x1="0.676" y1="0.026" x2="0.329" y2="0.962" xlink:href="#linear-gradient-27"/>
    <linearGradient id="linear-gradient-29" x1="0.484" y1="0.003" x2="0.501" y2="1.064" xlink:href="#linear-gradient-27"/>
    <linearGradient id="linear-gradient-30" x1="0.5" y1="-0.03" x2="0.5" y2="1.067" xlink:href="#linear-gradient-27"/>
    <linearGradient id="linear-gradient-31" x1="0.5" y1="-0.03" x2="0.5" y2="1.066" xlink:href="#linear-gradient-27"/>
    <linearGradient id="linear-gradient-33" x1="0.5" y1="-0.03" x2="0.5" y2="1.067" xlink:href="#linear-gradient-27"/>
    <linearGradient id="linear-gradient-34" x1="0.5" y1="-0.038" x2="0.5" y2="1.067" xlink:href="#linear-gradient-27"/>
    <linearGradient id="linear-gradient-35" y1="0.5" x2="1" y2="0.5" gradientUnits="objectBoundingBox">
      <stop offset="0" stop-color="#04638b"/>
      <stop offset="1" stop-color="#2ebada"/>
    </linearGradient>
    <linearGradient id="linear-gradient-36" x1="0.012" y1="0.5" x2="0.876" y2="0.5" gradientUnits="objectBoundingBox">
      <stop offset="0" stop-color="#04638b"/>
      <stop offset="0.186" stop-color="#086c93"/>
      <stop offset="0.488" stop-color="#1484a9"/>
      <stop offset="0.864" stop-color="#26aacc"/>
      <stop offset="1" stop-color="#2ebada"/>
    </linearGradient>
    <linearGradient id="linear-gradient-37" y1="0.5" x2="1" y2="0.5" gradientUnits="objectBoundingBox">
      <stop offset="0.001" stop-color="#fff" stop-opacity="0"/>
      <stop offset="0.987" stop-color="#fff" stop-opacity="0.102"/>
    </linearGradient>
    <linearGradient id="linear-gradient-38" x1="0.107" y1="0.973" x2="0.82" y2="-0.08" xlink:href="#linear-gradient-26"/>
    <linearGradient id="linear-gradient-39" x1="0.542" y1="0.434" x2="0.168" y2="0.892" gradientUnits="objectBoundingBox">
      <stop offset="0" stop-opacity="0"/>
      <stop offset="0.987" stop-opacity="0.102"/>
    </linearGradient>
    <radialGradient id="radial-gradient" cx="0.15" cy="0.573" r="0.99" gradientUnits="objectBoundingBox">
      <stop offset="0.013" stop-color="#fff" stop-opacity="0.6"/>
      <stop offset="1" stop-color="#fff" stop-opacity="0"/>
    </radialGradient>
    <linearGradient id="linear-gradient-40" y1="0.499" x2="1" y2="0.499" gradientUnits="objectBoundingBox">
      <stop offset="0.001" stop-color="#fff" stop-opacity="0.051"/>
      <stop offset="0.987" stop-color="#fff" stop-opacity="0.149"/>
    </linearGradient>
    <linearGradient id="linear-gradient-41" x1="0.04" y1="0.939" x2="0.785" y2="0.015" gradientUnits="objectBoundingBox">
      <stop offset="0.001" stop-color="#fff" stop-opacity="0.051"/>
      <stop offset="0.957" stop-color="#fff" stop-opacity="0.149"/>
      <stop offset="0.987" stop-color="#fff" stop-opacity="0.102"/>
    </linearGradient>
  </defs>
  <g id="Group_257" data-name="Group 257" transform="translate(0.007 -0.008)">
    <g id="Group_180" data-name="Group 180" transform="translate(53.107 16.423)">
      <g id="Group_176" data-name="Group 176" transform="translate(6.39 21.385)">
        <path id="Path_7167" data-name="Path 7167" d="M1738.2,1807.369V1803h.69v4.373h-.69Z" transform="translate(-1738.199 -1802.962)" fill="url(#linear-gradient)"/>
        <path id="Path_7168" data-name="Path 7168" d="M1778.4,1807.369V1803h.7l1.943,3.087V1803h.69v4.373h-.69l-1.95-3.073v3.073h-.7Z" transform="translate(-1777.005 -1802.962)" fill="url(#linear-gradient-2)"/>
        <path id="Path_7169" data-name="Path 7169" d="M1895,1807.369V1803h.7l1.943,3.087V1803h.69v4.373h-.69l-1.95-3.073v3.073h-.7Z" transform="translate(-1889.561 -1802.962)" fill="url(#linear-gradient-3)"/>
        <path id="Path_7170" data-name="Path 7170" d="M2009.421,1805.527a2.727,2.727,0,0,1-.09-.515,6.672,6.672,0,0,1-.031-.7,6.036,6.036,0,0,1,.045-.737,3.629,3.629,0,0,1,.122-.574,1.319,1.319,0,0,1,.2-.4,1.25,1.25,0,0,1,.26-.264,1.038,1.038,0,0,1,.326-.15,2.428,2.428,0,0,1,.669-.09c.239,0,.417.007.534.017a2.177,2.177,0,0,1,.371.073.953.953,0,0,1,.323.15,1.235,1.235,0,0,1,.253.264,1.3,1.3,0,0,1,.194.4,4.65,4.65,0,0,1,.159,1.345,2.957,2.957,0,0,1-.34,1.669,1.1,1.1,0,0,1-.576.421,3.565,3.565,0,0,1-1.2.087,1.561,1.561,0,0,1-.586-.125,1.477,1.477,0,0,1-.291-.205.974.974,0,0,1-.2-.274A2.9,2.9,0,0,1,2009.421,1805.527Zm.621-2c-.014.1-.024.226-.038.362s-.014.3-.014.476,0,.344.014.483a2.622,2.622,0,0,0,.049.379,1.044,1.044,0,0,0,.09.278.988.988,0,0,0,.132.188.533.533,0,0,0,.187.115,1.711,1.711,0,0,0,.545.073,1.841,1.841,0,0,0,.517-.056.59.59,0,0,0,.312-.226,1.032,1.032,0,0,0,.177-.462,4.4,4.4,0,0,0,.049-.685q0-.386-.01-.6a2.365,2.365,0,0,0-.049-.386q-.037-.161-.073-.281a.552.552,0,0,0-.111-.195.829.829,0,0,0-.142-.122.515.515,0,0,0-.18-.07,1.854,1.854,0,0,0-.385-.038c-.139,0-.24,0-.295,0s-.118.01-.191.021a.549.549,0,0,0-.17.049.687.687,0,0,0-.139.087.4.4,0,0,0-.118.139c-.028.056-.055.122-.087.2A.821.821,0,0,0,2010.042,1803.525Z" transform="translate(-1999.895 -1802.093)" fill="url(#linear-gradient-4)"/>
        <path id="Path_7171" data-name="Path 7171" d="M2115.8,1803h.739l1.086,3.417,1.142-3.417h.739l-1.5,4.373h-.774Z" transform="translate(-2102.701 -1802.962)" fill="url(#linear-gradient-5)"/>
        <path id="Path_7172" data-name="Path 7172" d="M2212.1,1807.272l1.523-4.373h.763l1.461,4.373h-.76l-.333-1.057h-1.547l-.34,1.057Zm1.3-1.69h1.169l-.572-1.738Z" transform="translate(-2195.66 -1802.864)" fill="url(#linear-gradient-6)"/>
        <path id="Path_7173" data-name="Path 7173" d="M2312.9,1803.55v-.65h3.153v.65h-1.242v3.723h-.694v-3.723Z" transform="translate(-2292.963 -1802.865)" fill="url(#linear-gradient-7)"/>
        <path id="Path_7174" data-name="Path 7174" d="M2419.5,1807.369V1803h.691v4.373h-.691Z" transform="translate(-2395.867 -1802.962)" fill="url(#linear-gradient-8)"/>
        <path id="Path_7175" data-name="Path 7175" d="M2454.6,1803h.739l1.086,3.417,1.142-3.417h.738l-1.5,4.373h-.773Z" transform="translate(-2429.747 -1802.962)" fill="url(#linear-gradient-9)"/>
        <path id="Path_7176" data-name="Path 7176" d="M2569.7,1803a.94.94,0,0,1,.229-.08,1.361,1.361,0,0,1,.174-.018q.062,0,.905.031c.562.018.923.042,1.086.066v.57h-1.78c-.146,0-.239.038-.274.108a.583.583,0,0,0-.038.226v.866l1.832.059v.57l-1.832.059v.866c0,.167.059.264.166.292a1.035,1.035,0,0,0,.2.017h1.724v.563c-.125.017-.607.045-1.437.083l-.413.017h-.111a1.581,1.581,0,0,1-.16-.01.9.9,0,0,1-.229-.059.682.682,0,0,1-.444-.762v-2.7A.788.788,0,0,1,2569.7,1803Z" transform="translate(-2540.47 -1802.864)" fill="url(#linear-gradient-10)"/>
        <path id="Path_7177" data-name="Path 7177" d="M2704.7,1803.55v-.65h3.154v.65h-1.245v3.723h-.691v-3.723Z" transform="translate(-2671.171 -1802.865)" fill="url(#linear-gradient-11)"/>
        <path id="Path_7178" data-name="Path 7178" d="M2786.3,1807.272l1.523-4.373h.763l1.46,4.373h-.76l-.333-1.057h-1.543l-.34,1.057Zm1.308-1.69h1.169l-.572-1.738Z" transform="translate(-2749.94 -1802.864)" fill="url(#linear-gradient-12)"/>
        <path id="Path_7179" data-name="Path 7179" d="M2909,1806.56V1803h.69v3.41c0,.153.042.243.125.275a.661.661,0,0,0,.243.038h1.617v.65h-1.807q-.63,0-.8-.407A1.279,1.279,0,0,1,2909,1806.56Z" transform="translate(-2868.385 -1802.962)" fill="url(#linear-gradient-13)"/>
        <path id="Path_7180" data-name="Path 7180" d="M3002.8,1803a.936.936,0,0,1,.229-.08,1.364,1.364,0,0,1,.173-.018c.045,0,.344.011.906.031s.923.042,1.086.066v.57h-1.78c-.146,0-.239.038-.274.108a.579.579,0,0,0-.038.226v.866l1.832.059v.57l-1.832.059v.866c0,.167.059.264.166.292a1.037,1.037,0,0,0,.2.017h1.724v.563c-.125.017-.607.045-1.436.083l-.413.017h-.111a1.573,1.573,0,0,1-.159-.01.891.891,0,0,1-.229-.059.838.838,0,0,1-.229-.136.827.827,0,0,1-.215-.626v-2.7A.794.794,0,0,1,3002.8,1803Z" transform="translate(-2958.545 -1802.864)" fill="url(#linear-gradient-14)"/>
        <path id="Path_7181" data-name="Path 7181" d="M3100.3,1807.369V1803h.7l1.942,3.087V1803h.691v4.373h-.691L3101,1804.3v3.073h-.7Z" transform="translate(-3053.047 -1802.962)" fill="url(#linear-gradient-15)"/>
        <path id="Path_7182" data-name="Path 7182" d="M3211.4,1803.55v-.65h3.153v.65h-1.245v3.723h-.69v-3.723Z" transform="translate(-3160.293 -1802.865)" fill="url(#linear-gradient-16)"/>
        <path id="Path_7183" data-name="Path 7183" d="M3359.124,1801.952a1.3,1.3,0,0,1,.35-.052h.336c.128,0,.351.017.67.052a6.492,6.492,0,0,1,.722.111v.549c-.167-.01-.434-.024-.794-.042s-.638-.017-.794-.017a.716.716,0,0,0-.378.087c-.1.056-.143.195-.143.414v.282a.48.48,0,0,0,.118.386.688.688,0,0,0,.4.091h.752a.873.873,0,0,1,.943.681,1.529,1.529,0,0,1,.052.431v.334a.956.956,0,0,1-.531.987,1.7,1.7,0,0,1-.68.118,6.459,6.459,0,0,1-1.609-.167v-.549a11.131,11.131,0,0,0,1.141.066c.323,0,.514,0,.573-.01a.952.952,0,0,0,.194-.052.356.356,0,0,0,.222-.372v-.3a.542.542,0,0,0-.1-.351.4.4,0,0,0-.336-.122h-.732a1.374,1.374,0,0,1-.5-.08.913.913,0,0,1-.322-.188.786.786,0,0,1-.181-.271,1.607,1.607,0,0,1-.1-.577v-.382a1,1,0,0,1,.347-.876A1.134,1.134,0,0,1,3359.124,1801.952Z" transform="translate(-3302.194 -1801.9)" fill="url(#linear-gradient-17)"/>
        <path id="Path_7184" data-name="Path 7184" d="M3459.922,1805.527a2.75,2.75,0,0,1-.09-.515,6.659,6.659,0,0,1-.032-.7,5.983,5.983,0,0,1,.045-.737,3.609,3.609,0,0,1,.121-.574,1.342,1.342,0,0,1,.2-.4,1.274,1.274,0,0,1,.26-.264,1.045,1.045,0,0,1,.326-.15,2.429,2.429,0,0,1,.67-.09c.239,0,.416.007.534.017a2.169,2.169,0,0,1,.372.073.951.951,0,0,1,.322.15,1.243,1.243,0,0,1,.254.264,1.3,1.3,0,0,1,.194.4,4.649,4.649,0,0,1,.16,1.345,2.95,2.95,0,0,1-.34,1.669,1.1,1.1,0,0,1-.576.421,3.566,3.566,0,0,1-1.2.087,1.563,1.563,0,0,1-.586-.125,1.789,1.789,0,0,1-.292-.205.963.963,0,0,1-.2-.274A2.869,2.869,0,0,1,3459.922,1805.527Zm.621-2c-.014.1-.024.226-.038.362s-.014.3-.014.476,0,.344.014.483a2.625,2.625,0,0,0,.048.379,1.052,1.052,0,0,0,.09.278.977.977,0,0,0,.132.188.53.53,0,0,0,.188.115,1.709,1.709,0,0,0,.544.073,1.84,1.84,0,0,0,.517-.056.59.59,0,0,0,.312-.226,1.035,1.035,0,0,0,.177-.462,4.4,4.4,0,0,0,.049-.685q0-.386-.011-.6a2.314,2.314,0,0,0-.048-.386q-.037-.161-.073-.281a.548.548,0,0,0-.111-.195.8.8,0,0,0-.142-.122.518.518,0,0,0-.181-.07,1.849,1.849,0,0,0-.385-.038c-.139,0-.239,0-.295,0s-.118.01-.191.021a.557.557,0,0,0-.17.049.687.687,0,0,0-.139.087.411.411,0,0,0-.118.139c-.027.056-.055.122-.087.2A.916.916,0,0,0,3460.543,1803.525Z" transform="translate(-3400.078 -1802.093)" fill="url(#linear-gradient-18)"/>
        <path id="Path_7185" data-name="Path 7185" d="M3577.5,1806.56V1803h.69v3.41c0,.153.042.243.125.275a.662.662,0,0,0,.243.038h1.616v.65h-1.807q-.63,0-.8-.407A1.19,1.19,0,0,1,3577.5,1806.56Z" transform="translate(-3513.694 -1802.962)" fill="url(#linear-gradient-19)"/>
        <path id="Path_7186" data-name="Path 7186" d="M3663.365,1807.4h-.087a2.007,2.007,0,0,1-.943-.15,1.867,1.867,0,0,1-.25-.212.889.889,0,0,1-.211-.344,3.846,3.846,0,0,1-.173-1.237V1803h.69v2.461a2.637,2.637,0,0,0,.1.866,1.085,1.085,0,0,0,.128.229.413.413,0,0,0,.194.125,1.29,1.29,0,0,0,.458.073,2.177,2.177,0,0,0,.392-.024.853.853,0,0,0,.253-.1.5.5,0,0,0,.2-.212,2.19,2.19,0,0,0,.159-.96V1803h.7v2.461a3.04,3.04,0,0,1-.156,1.116,3.118,3.118,0,0,1-.167.344.654.654,0,0,1-.225.233c-.094.059-.177.1-.247.139a.9.9,0,0,1-.281.08A4.843,4.843,0,0,1,3663.365,1807.4Z" transform="translate(-3594.973 -1802.962)" fill="url(#linear-gradient-20)"/>
        <path id="Path_7187" data-name="Path 7187" d="M3771.4,1803.55v-.65h3.154v.65h-1.246v3.723h-.69v-3.723Z" transform="translate(-3700.869 -1802.865)" fill="url(#linear-gradient-16)"/>
        <path id="Path_7188" data-name="Path 7188" d="M3877.9,1807.369V1803h.69v4.373h-.69Z" transform="translate(-3803.672 -1802.962)" fill="url(#linear-gradient-22)"/>
        <path id="Path_7189" data-name="Path 7189" d="M3916.122,1805.527a2.708,2.708,0,0,1-.09-.515,6.593,6.593,0,0,1-.032-.7,5.983,5.983,0,0,1,.045-.737,3.551,3.551,0,0,1,.122-.574,1.341,1.341,0,0,1,.2-.4,1.255,1.255,0,0,1,.26-.264,1.045,1.045,0,0,1,.326-.15,2.431,2.431,0,0,1,.669-.09c.24,0,.416.007.534.017a2.166,2.166,0,0,1,.371.073.95.95,0,0,1,.323.15,1.229,1.229,0,0,1,.253.264,1.293,1.293,0,0,1,.194.4,4.622,4.622,0,0,1,.16,1.345,2.952,2.952,0,0,1-.34,1.669,1.1,1.1,0,0,1-.575.421,3.567,3.567,0,0,1-1.2.087,1.563,1.563,0,0,1-.587-.125,1.5,1.5,0,0,1-.291-.205.964.964,0,0,1-.2-.274A2.837,2.837,0,0,1,3916.122,1805.527Zm.621-2c-.014.1-.024.226-.038.362s-.014.3-.014.476,0,.344.014.483a2.558,2.558,0,0,0,.048.379,1.052,1.052,0,0,0,.09.278.977.977,0,0,0,.132.188.531.531,0,0,0,.187.115,1.711,1.711,0,0,0,.544.073,1.838,1.838,0,0,0,.517-.056.59.59,0,0,0,.312-.226,1.035,1.035,0,0,0,.177-.462,4.435,4.435,0,0,0,.049-.685q0-.386-.011-.6a2.34,2.34,0,0,0-.048-.386q-.037-.161-.073-.281a.556.556,0,0,0-.111-.195.866.866,0,0,0-.142-.122.522.522,0,0,0-.181-.07,1.857,1.857,0,0,0-.385-.038c-.139,0-.24,0-.295,0s-.118.01-.191.021a.553.553,0,0,0-.17.049.681.681,0,0,0-.139.087.45.45,0,0,0-.118.139c-.027.056-.055.122-.086.2A.908.908,0,0,0,3916.743,1803.525Z" transform="translate(-3840.452 -1802.093)" fill="url(#linear-gradient-18)"/>
        <path id="Path_7190" data-name="Path 7190" d="M4033.7,1807.369V1803h.7l1.943,3.087V1803h.69v4.373h-.69l-1.949-3.073v3.073h-.7Z" transform="translate(-3954.068 -1802.962)" fill="url(#linear-gradient-24)"/>
        <path id="Path_7191" data-name="Path 7191" d="M4148.426,1801.952a1.3,1.3,0,0,1,.351-.052h.336c.128,0,.35.017.669.052a6.48,6.48,0,0,1,.721.111v.549c-.166-.01-.434-.024-.794-.042s-.638-.017-.794-.017a.717.717,0,0,0-.378.087c-.1.056-.142.195-.142.414v.282a.476.476,0,0,0,.118.386.689.689,0,0,0,.4.091h.752a.873.873,0,0,1,.943.681,1.547,1.547,0,0,1,.052.431v.334a.955.955,0,0,1-.531.987,1.7,1.7,0,0,1-.68.118,6.459,6.459,0,0,1-1.609-.167v-.549a11.141,11.141,0,0,0,1.142.066c.322,0,.513,0,.572-.01a.96.96,0,0,0,.194-.052.356.356,0,0,0,.222-.372v-.3a.539.539,0,0,0-.1-.351.4.4,0,0,0-.336-.122h-.732a1.366,1.366,0,0,1-.5-.08.906.906,0,0,1-.323-.188.837.837,0,0,1-.181-.271,1.607,1.607,0,0,1-.1-.577v-.382a1,1,0,0,1,.347-.876A1.134,1.134,0,0,1,4148.426,1801.952Z" transform="translate(-4064.115 -1801.9)" fill="url(#linear-gradient-17)"/>
      </g>
      <g id="Group_178" data-name="Group 178">
        <g id="Group_177" data-name="Group 177">
          <path id="Path_7192" data-name="Path 7192" d="M1623.792,1197.611h-6.216a1.4,1.4,0,0,0-1.141.459,3.2,3.2,0,0,0-.35,1.682,2.862,2.862,0,0,0,.423,1.717,1.536,1.536,0,0,0,1,.424h5.54a1.168,1.168,0,0,0,.617-.1c.146-.129.125-.247.125-.435l0-3.744Zm-46.079-1.234c0,1.47.035,3.188,1.055,4.362a5.01,5.01,0,0,0,4.006,1.356,4.919,4.919,0,0,0,3.975-1.359c1.086-1.21,1.086-2.83,1.086-4.356s.045-3.271-1.051-4.491a5.106,5.106,0,0,0-4.01-1.293c-1.377,0-3.073.174-4.041,1.286S1577.713,1194.977,1577.713,1196.378Zm77.023,8.919-8.2-18.392h5.026l5.516,13.23,5.838-13.16h4.95l-11.427,25.4h-4.947Zm-30.944-11.582v-.849a2.163,2.163,0,0,0-.42-1.442,1.928,1.928,0,0,0-1.616-.629h-9.283V1186.9h10.643a5.673,5.673,0,0,1,4.038,1.526,6.759,6.759,0,0,1,1.44,4.543v9.368a3.608,3.608,0,0,1-.832,2.611,3.747,3.747,0,0,1-2.775.834h-8.6a4.953,4.953,0,0,1-3.531-.987c-1.461-1.265-1.707-3.406-1.707-5.217s.243-3.448,1.672-4.7a4.962,4.962,0,0,1,3.57-1.157h7.4Zm-13.584,12.069h-9.082a7.182,7.182,0,0,1-5.686-2.36c-1.634-1.94-1.728-4.421-1.728-6.841,0-2.691.163-5.565,2.158-7.613a7.839,7.839,0,0,1,5.8-2.065h8.128v3.893h-6.838c-1.835,0-3.483.678-4.021,2.562a14.437,14.437,0,0,0-.288,3.292,9.505,9.505,0,0,0,.534,3.56c.784,1.55,2.619,1.682,4.152,1.682h6.872l-.007,3.89Zm-27.433-19.083c2.564,0,5.571.163,7.556,2.02s2.442,4.964,2.442,7.557-.451,5.788-2.442,7.658c-1.936,1.818-5.04,2.054-7.556,2.054-2.55,0-5.575-.233-7.552-2.051-2.033-1.87-2.446-4.9-2.446-7.526s.416-5.8,2.442-7.692C1577.2,1186.863,1580.211,1186.7,1582.775,1186.7Zm48.84,2.27c-1.991,2.047-2.158,4.922-2.158,7.613,0,2.419.094,4.9,1.728,6.841a7.183,7.183,0,0,0,5.686,2.36h9.078v-3.893h-6.872c-1.533,0-3.368-.129-4.152-1.682a9.506,9.506,0,0,1-.534-3.559,14.429,14.429,0,0,1,.288-3.292c.541-1.884,2.189-2.562,4.021-2.562h6.838V1186.9h-8.125A7.838,7.838,0,0,0,1631.615,1188.97Zm-67.348,11.8c.038-.087.073-.167.09-.215l5.131-13.654h5.016l-7.1,17.224c-.6,1.505-1.644,1.86-3.136,1.86-1.474,0-2.557-.372-3.167-1.856l-7.1-17.224h5.016l5.165,13.651C1564.2,1200.6,1564.229,1200.688,1564.267,1200.771Z" transform="translate(-1553.999 -1186.7)" fill="url(#linear-gradient-26)"/>
        </g>
      </g>
      <g id="Group_179" data-name="Group 179" transform="translate(0.548 0.372)">
        <path id="Path_7193" data-name="Path 7193" d="M1577.362,1211.956h-3.913l-3.649-8.857h4.215Z" transform="translate(-1569.8 -1202.901)" fill-rule="evenodd" fill="url(#linear-gradient-27)"/>
        <path id="Path_7194" data-name="Path 7194" d="M1919.441,1203.1l-3.649,8.857H1911.9l3.327-8.857Z" transform="translate(-1900.032 -1202.901)" fill-rule="evenodd" fill="url(#linear-gradient-28)"/>
        <path id="Path_7195" data-name="Path 7195" d="M2125.063,1206.455h-4.2c0-1.578-.031-3.243-1.145-4.484s-2.727-1.415-4.284-1.415c-1.5,0-3.271.208-4.316,1.415-.978,1.13-1.1,3.007-1.11,4.484h-4.2c.031-2.464.458-5.395,2.324-7.136,1.9-1.776,4.843-1.919,7.306-1.919s5.405.146,7.306,1.919C2124.6,1201.057,2125.046,1204,2125.063,1206.455Z" transform="translate(-2087.206 -1197.4)" fill-rule="evenodd" fill="url(#linear-gradient-29)"/>
        <path id="Path_7196" data-name="Path 7196" d="M2724.753,1203.2v3.16h-6.47c-1.995,0-3.785.775-4.375,2.826a11.848,11.848,0,0,0-.3,2.868H2709.4c.021-2.454.254-5.051,2.054-6.9a7.485,7.485,0,0,1,5.54-1.953Z" transform="translate(-2669.865 -1202.999)" fill-rule="evenodd" fill="url(#linear-gradient-30)"/>
        <path id="Path_7197" data-name="Path 7197" d="M3248.893,1208.9v3.156H3232.9a4.1,4.1,0,0,1,.822-.977,4.611,4.611,0,0,1,3.327-1.067h7.771V1208.8a2.521,2.521,0,0,0-.5-1.676,2.267,2.267,0,0,0-1.9-.765H3233.5v-3.16h10.275a5.337,5.337,0,0,1,3.774,1.411A6.405,6.405,0,0,1,3248.893,1208.9Z" transform="translate(-3175.207 -1202.999)" fill-rule="evenodd" fill="url(#linear-gradient-31)"/>
        <path id="Path_7198" data-name="Path 7198" d="M3755.153,1203.2v3.16h-6.47c-1.994,0-3.785.775-4.374,2.826a11.811,11.811,0,0,0-.3,2.868H3739.8c.021-2.454.253-5.051,2.054-6.9a7.485,7.485,0,0,1,5.54-1.953Z" transform="translate(-3664.521 -1202.999)" fill-rule="evenodd" fill="url(#linear-gradient-30)"/>
        <path id="Path_7199" data-name="Path 7199" d="M4245.6,1211.956h-3.954l-3.952-8.857h4.215Z" transform="translate(-4145.149 -1202.901)" fill-rule="evenodd" fill="url(#linear-gradient-33)"/>
        <path id="Path_7200" data-name="Path 7200" d="M4596.144,1205.1l-3.965,8.788h-4.08l3.9-8.788Z" transform="translate(-4483.394 -1204.833)" fill-rule="evenodd" fill="url(#linear-gradient-34)"/>
      </g>
    </g>
    <g id="Group_199" data-name="Group 199" transform="translate(0 0)">
      <g id="Group_193" data-name="Group 193" transform="translate(9.581 35.117) rotate(-120)">
        <ellipse id="Ellipse_28" data-name="Ellipse 28" cx="3.134" cy="3.132" rx="3.134" ry="3.132" transform="translate(9.337 5.661)" fill="url(#linear-gradient-35)"/>
        <path id="Path_7201" data-name="Path 7201" d="M.323,0C.27,0,.218,0,.162,0S.053,0,0,0Z" transform="translate(5.237 12.556)" fill="none" stroke="#6ec6d8" stroke-width="1"/>
        <path id="Path_7202" data-name="Path 7202" d="M0,0H.32C.267,0,.214,0,.158,0S.053,0,0,0Z" transform="translate(5.237 12.556)" fill="none" stroke="#6ec6d8" stroke-width="1"/>
        <path id="Path_7203" data-name="Path 7203" d="M19.18,5.563A4.058,4.058,0,0,1,15.121,9.62l-11.056,0A4.066,4.066,0,0,1,0,5.555a4.052,4.052,0,0,1,.47-1.9l0,0L.62,3.4h0L2.582,0A3.107,3.107,0,0,0,2.27,1.367a2.91,2.91,0,0,0,.046.527,3.136,3.136,0,0,0,2.92,2.6c.053,0,.105,0,.162,0s.109,0,.162,0L19.039,4.5A4.1,4.1,0,0,1,19.18,5.563Z" transform="translate(0.004 8.07)" fill="url(#linear-gradient-36)"/>
        <ellipse id="Ellipse_29" data-name="Ellipse 29" cx="2.849" cy="2.847" rx="2.849" ry="2.847" transform="translate(9.622 5.946)" fill="url(#linear-gradient-37)"/>
        <path id="Path_7204" data-name="Path 7204" d="M10.206,1.216,6.3,8l-.221.383-1.383,2.4-1,1.734-.028.046H2.971a3.122,3.122,0,0,1-2.92-2.6A3.26,3.26,0,0,1,0,9.432,3.129,3.129,0,0,1,.316,8.066v0l.218-.376,0,0L3.75,2.112l0-.007v0l0,0,.081-.14a4.063,4.063,0,0,1,6.369-.742Z" transform="translate(2.263 0.001)" fill="url(#linear-gradient-38)"/>
        <path id="Path_7205" data-name="Path 7205" d="M5.623,3.717,4.689,5.339l-1,1.734-.028.046H2.968a3.122,3.122,0,0,1-2.92-2.6A3.267,3.267,0,0,1,0,4,3.13,3.13,0,0,1,.314,2.63v0l.218-.376,0,0L1.831,0A3.2,3.2,0,0,0,1.8.454a3.305,3.305,0,0,0,3.3,3.3A2.83,2.83,0,0,0,5.623,3.717Z" transform="translate(2.269 5.437)" fill="url(#linear-gradient-39)"/>
        <g id="Group_181" data-name="Group 181" transform="translate(2.176 8.074)">
          <path id="Path_7206" data-name="Path 7206" d="M0,0Z" transform="translate(16.426 7.661)" fill="#fff"/>
          <path id="Path_7207" data-name="Path 7207" d="M16.913,6.1a3.352,3.352,0,0,0,.014-.53c-.007-.126-.021-.253-.035-.379a3.783,3.783,0,0,0-.106-.52l-.011-.032s0-.007-.011-.018h-.07L3.612,4.616a4.789,4.789,0,0,1-.5,0,4.968,4.968,0,0,1-.643-.088,3.173,3.173,0,0,1-.994-.4,2.939,2.939,0,0,1-.717-.6A3.2,3.2,0,0,1,.148,2.5a2.4,2.4,0,0,1-.123-.492A4.129,4.129,0,0,1,0,1.419,3.721,3.721,0,0,1,.063.794C.084.688.108.583.129.478v0L.231.3h0L.407,0A3.107,3.107,0,0,0,.095,1.366a2.905,2.905,0,0,0,.046.527A3.117,3.117,0,0,0,1.378,3.888h0a3.118,3.118,0,0,0,1.683.6c.053,0,.105,0,.162,0s.109,0,.162,0l13.48.005a3.981,3.981,0,0,1,.144,1.071,4.067,4.067,0,0,1-.565,2.072s0-.01.007-.014a4.3,4.3,0,0,0,.393-1.05C16.875,6.412,16.9,6.253,16.913,6.1Z" transform="translate(0 0)" fill="url(#radial-gradient)"/>
        </g>
        <path id="Path_7208" data-name="Path 7208" d="M.775,0c0,.165,0,.334,0,.5A4.275,4.275,0,0,0,.9,1.552,2.749,2.749,0,0,0,2.023,3.1a3.978,3.978,0,0,0,1.226.552,5.093,5.093,0,0,0,.759.148c.144.018.292.028.439.032.432.007.861.011,1.293.011q4.353,0,8.7,0c1.261,0,2.519,0,3.78.008h.084a.75.75,0,0,0-.028.074,4.028,4.028,0,0,1-.73,1.067,3.59,3.59,0,0,1-1.89,1.039,3.517,3.517,0,0,1-.741.077q-5.6,0-11.193-.008a3.531,3.531,0,0,1-2.488-.977A3.858,3.858,0,0,1,.07,3.037a3.307,3.307,0,0,1-.06-.488A3.642,3.642,0,0,1,.515.457C.6.309.683.165.768.018.768,0,.771,0,.775,0Z" transform="translate(0.309 11.308)" fill="url(#linear-gradient-40)"/>
        <path id="Path_7209" data-name="Path 7209" d="M.951,11.349a2.086,2.086,0,0,1-.334-.3A2.206,2.206,0,0,1,.062,9.941,2.92,2.92,0,0,1,.009,9.2,5.134,5.134,0,0,1,.167,8.188a.345.345,0,0,1,.042-.1q.958-1.659,1.913-3.318Q2.959,3.324,3.793,1.88A3.715,3.715,0,0,1,5.317.413,3.527,3.527,0,0,1,6.41.058,3.944,3.944,0,0,1,8.623.326a3.679,3.679,0,0,1,.9.573c.011.011.021.017.039.035H9.438a4.857,4.857,0,0,0-1.489.238,3.746,3.746,0,0,0-1.5.923,4.26,4.26,0,0,0-.664.881Q4.709,4.851,3.626,6.722,2.721,8.3,1.811,9.867c-.27.47-.544.941-.814,1.411A.611.611,0,0,0,.951,11.349Z" transform="translate(2.518 0.223)" fill="url(#linear-gradient-41)"/>
      </g>
      <g id="Group_182" data-name="Group 182" transform="translate(30.592 11.048)">
        <ellipse id="Ellipse_28-2" data-name="Ellipse 28" cx="3.124" cy="3.127" rx="3.124" ry="3.127" transform="translate(9.328 5.661)" fill="url(#linear-gradient-35)"/>
        <path id="Path_7201-2" data-name="Path 7201" d="M1079.923,1373.9c-.053,0-.105,0-.162,0s-.109,0-.161,0Z" transform="translate(-1074.373 -1361.338)" fill="none" stroke="#6ec6d8" stroke-width="1"/>
        <path id="Path_7202-2" data-name="Path 7202" d="M1079.6,1373.9h.319c-.053,0-.105,0-.161,0S1079.653,1373.9,1079.6,1373.9Z" transform="translate(-1074.373 -1361.338)" fill="none" stroke="#6ec6d8" stroke-width="1"/>
        <path id="Path_7203-2" data-name="Path 7203" d="M949.864,1251.759a4.062,4.062,0,0,1-4.058,4.062H934.758a4.062,4.062,0,0,1-4.058-4.062,4.063,4.063,0,0,1,.47-1.9l0,0,.144-.253h0l1.962-3.405a3.115,3.115,0,0,0-.312,1.367,2.918,2.918,0,0,0,.046.527,3.132,3.132,0,0,0,2.917,2.6c.053,0,.105,0,.161,0s.109,0,.161,0h13.47A4.109,4.109,0,0,1,949.864,1251.759Z" transform="translate(-930.7 -1238.126)" fill="url(#linear-gradient-36)"/>
        <ellipse id="Ellipse_29-2" data-name="Ellipse 29" cx="2.84" cy="2.843" rx="2.84" ry="2.843" transform="translate(9.612 5.945)" fill="url(#linear-gradient-37)"/>
        <path id="Path_7204-2" data-name="Path 7204" d="M1005.3,1017.613l-3.911,6.785-.221.383-1.383,2.4-1,1.736-.028.046h-.692a3.119,3.119,0,0,1-2.917-2.6,3.272,3.272,0,0,1-.046-.527,3.133,3.133,0,0,1,.313-1.367v0l.218-.376,0,0,3.212-5.577,0-.007v0l0,0,.081-.14a4.058,4.058,0,0,1,6.365-.745Z" transform="translate(-992.839 -1016.4)" fill="url(#linear-gradient-38)"/>
        <path id="Path_7205-2" data-name="Path 7205" d="M1000.817,1174.918l-.934,1.623-1,1.736-.028.046h-.692a3.119,3.119,0,0,1-2.917-2.6,3.282,3.282,0,0,1-.046-.527,3.136,3.136,0,0,1,.313-1.367v0l.218-.376,0,0,1.3-2.249a3.211,3.211,0,0,0-.032.453,3.3,3.3,0,0,0,3.3,3.3A2.84,2.84,0,0,0,1000.817,1174.918Z" transform="translate(-992.935 -1165.761)" fill="url(#linear-gradient-39)"/>
        <g id="Group_181-2" data-name="Group 181" transform="translate(2.17 8.078)">
          <path id="Path_7206-2" data-name="Path 7206" d="M1460,1464.3Z" transform="translate(-1443.589 -1456.64)" fill="#fff"/>
          <path id="Path_7207-2" data-name="Path 7207" d="M1009.424,1252.4a3.374,3.374,0,0,0,.014-.531c-.007-.126-.021-.253-.035-.379a3.78,3.78,0,0,0-.105-.52l-.01-.032s0-.007-.01-.018H996.133a4.786,4.786,0,0,1-.5,0,4.952,4.952,0,0,1-.642-.088,3.171,3.171,0,0,1-.994-.4,2.93,2.93,0,0,1-.716-.6,3.206,3.206,0,0,1-.607-1.03,2.411,2.411,0,0,1-.123-.492,4.14,4.14,0,0,1-.021-.59,3.728,3.728,0,0,1,.06-.625c.021-.105.046-.211.067-.316v0l.1-.172h0l.175-.3a3.114,3.114,0,0,0-.312,1.367,2.911,2.911,0,0,0,.046.527,3.116,3.116,0,0,0,1.236,2h0a3.112,3.112,0,0,0,1.682.6c.053,0,.105,0,.161,0s.109,0,.161,0h13.47a3.985,3.985,0,0,1,.144,1.072,4.075,4.075,0,0,1-.565,2.073s0-.01.007-.014a4.3,4.3,0,0,0,.393-1.05C1009.385,1252.709,1009.406,1252.551,1009.424,1252.4Z" transform="translate(-992.524 -1246.3)" fill="url(#radial-gradient)"/>
        </g>
        <path id="Path_7208-2" data-name="Path 7208" d="M940.127,1338.4c0,.165,0,.334,0,.5a4.28,4.28,0,0,0,.123,1.054,2.747,2.747,0,0,0,1.123,1.553,3.969,3.969,0,0,0,1.225.552,5.068,5.068,0,0,0,.758.148c.144.017.291.028.439.032.432.007.86.011,1.292.011q4.35-.005,8.7-.007c1.26,0,2.517,0,3.777.007h.084a.727.727,0,0,0-.028.074,4.031,4.031,0,0,1-.73,1.068,3.589,3.589,0,0,1-1.889,1.04,3.509,3.509,0,0,1-.741.077q-5.592,0-11.185,0a3.523,3.523,0,0,1-2.485-.977,3.858,3.858,0,0,1-1.166-2.087,3.3,3.3,0,0,1-.06-.488,3.651,3.651,0,0,1,.506-2.094c.084-.148.169-.292.253-.439C940.12,1338.4,940.123,1338.4,940.127,1338.4Z" transform="translate(-939.049 -1327.086)" fill="url(#linear-gradient-40)"/>
        <path id="Path_7209-2" data-name="Path 7209" d="M1003.312,1034.08a2.1,2.1,0,0,1-.334-.3,2.208,2.208,0,0,1-.555-1.114,2.92,2.92,0,0,1-.053-.741,5.134,5.134,0,0,1,.158-1.012.348.348,0,0,1,.042-.1q.958-1.66,1.913-3.321.837-1.449,1.671-2.9a3.719,3.719,0,0,1,1.524-1.469,3.525,3.525,0,0,1,1.092-.355,3.939,3.939,0,0,1,2.212.267,3.669,3.669,0,0,1,.9.573c.01.011.021.018.039.035h-.126a4.854,4.854,0,0,0-1.489.239,3.747,3.747,0,0,0-1.5.924,4.282,4.282,0,0,0-.664.882q-1.079,1.876-2.163,3.749-.906,1.576-1.815,3.148c-.27.471-.544.942-.815,1.413A.6.6,0,0,0,1003.312,1034.08Z" transform="translate(-999.851 -1022.501)" fill="url(#linear-gradient-41)"/>
      </g>
      <g id="Group_194" data-name="Group 194" transform="translate(13.124 16.613) rotate(-60)">
        <ellipse id="Ellipse_28-3" data-name="Ellipse 28" cx="3.119" cy="3.118" rx="3.119" ry="3.118" transform="translate(9.331 5.653)" fill="url(#linear-gradient-35)"/>
        <path id="Path_7201-3" data-name="Path 7201" d="M.323,0C.27,0,.218,0,.162,0S.053,0,0,0Z" transform="translate(5.225 12.551)" fill="none" stroke="#6ec6d8" stroke-width="1"/>
        <path id="Path_7202-3" data-name="Path 7202" d="M0,0H.32C.267,0,.214,0,.158,0S.053,0,0,0Z" transform="translate(5.225 12.551)" fill="none" stroke="#6ec6d8" stroke-width="1"/>
        <path id="Path_7203-3" data-name="Path 7203" d="M19.175,5.547a4.066,4.066,0,0,1-4.063,4.061l-11.056,0A4.058,4.058,0,0,1,0,5.555a4.057,4.057,0,0,1,.472-1.9l0,0L.617,3.4h0L2.582,0a3.111,3.111,0,0,0-.313,1.366,2.908,2.908,0,0,0,.045.527A3.13,3.13,0,0,0,5.232,4.486c.053,0,.105,0,.162,0s.109,0,.162,0l13.48-.005A4.1,4.1,0,0,1,19.175,5.547Z" transform="translate(-0.004 8.069)" fill="url(#linear-gradient-36)"/>
        <ellipse id="Ellipse_29-3" data-name="Ellipse 29" cx="2.835" cy="2.834" rx="2.835" ry="2.834" transform="translate(9.615 5.937)" fill="url(#linear-gradient-37)"/>
        <path id="Path_7204-3" data-name="Path 7204" d="M10.2,1.207,6.288,7.989l-.221.383-1.385,2.4-1,1.735-.028.046H2.959A3.116,3.116,0,0,1,.041,9.958,3.263,3.263,0,0,1,0,9.431,3.133,3.133,0,0,1,.309,8.065v0l.218-.376,0,0L3.747,2.108l0-.007v0l0,0,.081-.14A4.065,4.065,0,0,1,10.2,1.207Z" transform="translate(2.262 -0.001)" fill="url(#linear-gradient-38)"/>
        <path id="Path_7205-3" data-name="Path 7205" d="M5.619,3.713,4.684,5.335l-1,1.735-.028.046H2.962A3.116,3.116,0,0,1,.044,4.523,3.265,3.265,0,0,1,0,4,3.133,3.133,0,0,1,.311,2.63v0l.218-.376,0,0L1.83,0A3.2,3.2,0,0,0,1.8.452a3.3,3.3,0,0,0,3.3,3.3A2.827,2.827,0,0,0,5.619,3.713Z" transform="translate(2.263 5.434)" fill="url(#linear-gradient-39)"/>
        <g id="Group_181-3" data-name="Group 181" transform="translate(2.168 8.071)">
          <path id="Path_7206-3" data-name="Path 7206" d="M0,0Z" transform="translate(16.419 7.648)" fill="#fff"/>
          <path id="Path_7207-3" data-name="Path 7207" d="M16.908,6.086a3.356,3.356,0,0,0,.014-.53c-.007-.126-.021-.253-.035-.379a3.785,3.785,0,0,0-.105-.52l-.01-.032s0-.007-.011-.018h-.07L3.609,4.613a4.784,4.784,0,0,1-.5,0,4.991,4.991,0,0,1-.643-.088,3.17,3.17,0,0,1-.994-.4,2.933,2.933,0,0,1-.716-.6A3.2,3.2,0,0,1,.146,2.5a2.4,2.4,0,0,1-.123-.492A4.128,4.128,0,0,1,0,1.419,3.722,3.722,0,0,1,.062.794C.083.688.108.583.129.477v0L.231.3h0L.406,0A3.11,3.11,0,0,0,.093,1.366a2.906,2.906,0,0,0,.045.527A3.111,3.111,0,0,0,1.375,3.887h0a3.114,3.114,0,0,0,1.683.6c.053,0,.105,0,.162,0s.109,0,.162,0l13.48-.005A3.977,3.977,0,0,1,17,5.548a4.071,4.071,0,0,1-.566,2.072s0-.01.007-.014a4.3,4.3,0,0,0,.394-1.05C16.87,6.4,16.891,6.24,16.908,6.086Z" transform="translate(0 0)" fill="url(#radial-gradient)"/>
        </g>
        <path id="Path_7208-3" data-name="Path 7208" d="M.774,0c0,.165,0,.334,0,.5A4.272,4.272,0,0,0,.9,1.552,2.743,2.743,0,0,0,2.02,3.1a3.969,3.969,0,0,0,1.226.551A5.083,5.083,0,0,0,4,3.8c.144.017.292.028.439.031.432.007.861.01,1.293.01q4.353-.007,8.7-.01c1.261,0,2.519,0,3.78.005H18.3a.751.751,0,0,0-.028.074,4.036,4.036,0,0,1-.731,1.068,3.6,3.6,0,0,1-1.89,1.04,3.518,3.518,0,0,1-.741.078q-5.6,0-11.193,0a3.526,3.526,0,0,1-2.487-.975A3.851,3.851,0,0,1,.067,3.037a3.3,3.3,0,0,1-.06-.488A3.646,3.646,0,0,1,.514.456C.6.309.683.165.767.017.767,0,.771,0,.774,0Z" transform="translate(0.299 11.306)" fill="url(#linear-gradient-40)"/>
        <path id="Path_7209-3" data-name="Path 7209" d="M.941,11.347a2.08,2.08,0,0,1-.334-.295A2.2,2.2,0,0,1,.053,9.94,2.919,2.919,0,0,1,0,9.2,5.137,5.137,0,0,1,.159,8.187a.346.346,0,0,1,.042-.1q.96-1.66,1.916-3.319Q2.955,3.321,3.79,1.876A3.724,3.724,0,0,1,5.316.407,3.532,3.532,0,0,1,6.408.052,3.944,3.944,0,0,1,8.621.318a3.671,3.671,0,0,1,.9.572c.011.011.021.017.039.035H9.436a4.86,4.86,0,0,0-1.49.239,3.753,3.753,0,0,0-1.5.924,4.276,4.276,0,0,0-.664.882Q4.7,4.846,3.62,6.718,2.713,8.293,1.8,9.865c-.271.471-.545.941-.816,1.412A.615.615,0,0,0,.941,11.347Z" transform="translate(2.517 0.221)" fill="url(#linear-gradient-41)"/>
      </g>
      <g id="Group_196" data-name="Group 196" transform="translate(44.762 23.498) rotate(60)">
        <ellipse id="Ellipse_28-4" data-name="Ellipse 28" cx="3.134" cy="3.132" rx="3.134" ry="3.132" transform="translate(9.337 5.661)" fill="url(#linear-gradient-35)"/>
        <path id="Path_7201-4" data-name="Path 7201" d="M.323,0C.27,0,.218,0,.162,0S.053,0,0,0Z" transform="translate(5.237 12.556)" fill="none" stroke="#6ec6d8" stroke-width="1"/>
        <path id="Path_7202-4" data-name="Path 7202" d="M0,0H.32C.267,0,.214,0,.158,0S.053,0,0,0Z" transform="translate(5.237 12.556)" fill="none" stroke="#6ec6d8" stroke-width="1"/>
        <path id="Path_7203-4" data-name="Path 7203" d="M19.18,5.563A4.058,4.058,0,0,1,15.121,9.62l-11.056,0A4.066,4.066,0,0,1,0,5.555a4.052,4.052,0,0,1,.47-1.9l0,0L.62,3.4h0L2.582,0A3.107,3.107,0,0,0,2.27,1.367a2.91,2.91,0,0,0,.046.527,3.136,3.136,0,0,0,2.92,2.6c.053,0,.105,0,.162,0s.109,0,.162,0L19.039,4.5A4.1,4.1,0,0,1,19.18,5.563Z" transform="translate(0.004 8.07)" fill="url(#linear-gradient-36)"/>
        <ellipse id="Ellipse_29-4" data-name="Ellipse 29" cx="2.849" cy="2.847" rx="2.849" ry="2.847" transform="translate(9.622 5.946)" fill="url(#linear-gradient-37)"/>
        <path id="Path_7204-4" data-name="Path 7204" d="M10.206,1.216,6.3,8l-.221.383-1.383,2.4-1,1.734-.028.046H2.971a3.122,3.122,0,0,1-2.92-2.6A3.26,3.26,0,0,1,0,9.432,3.129,3.129,0,0,1,.316,8.066v0l.218-.376,0,0L3.75,2.112l0-.007v0l0,0,.081-.14a4.063,4.063,0,0,1,6.369-.742Z" transform="translate(2.263 0.001)" fill="url(#linear-gradient-38)"/>
        <path id="Path_7205-4" data-name="Path 7205" d="M5.623,3.717,4.689,5.339l-1,1.734-.028.046H2.968a3.122,3.122,0,0,1-2.92-2.6A3.267,3.267,0,0,1,0,4,3.13,3.13,0,0,1,.314,2.63v0l.218-.376,0,0L1.831,0A3.2,3.2,0,0,0,1.8.454a3.305,3.305,0,0,0,3.3,3.3A2.83,2.83,0,0,0,5.623,3.717Z" transform="translate(2.269 5.437)" fill="url(#linear-gradient-39)"/>
        <g id="Group_181-4" data-name="Group 181" transform="translate(2.176 8.074)">
          <path id="Path_7206-4" data-name="Path 7206" d="M0,0Z" transform="translate(16.426 7.661)" fill="#fff"/>
          <path id="Path_7207-4" data-name="Path 7207" d="M16.913,6.1a3.352,3.352,0,0,0,.014-.53c-.007-.126-.021-.253-.035-.379a3.783,3.783,0,0,0-.106-.52l-.011-.032s0-.007-.011-.018h-.07L3.612,4.616a4.789,4.789,0,0,1-.5,0,4.968,4.968,0,0,1-.643-.088,3.173,3.173,0,0,1-.994-.4,2.939,2.939,0,0,1-.717-.6A3.2,3.2,0,0,1,.148,2.5a2.4,2.4,0,0,1-.123-.492A4.129,4.129,0,0,1,0,1.419,3.721,3.721,0,0,1,.063.794C.084.688.108.583.129.478v0L.231.3h0L.407,0A3.107,3.107,0,0,0,.095,1.366a2.905,2.905,0,0,0,.046.527A3.117,3.117,0,0,0,1.378,3.888h0a3.118,3.118,0,0,0,1.683.6c.053,0,.105,0,.162,0s.109,0,.162,0l13.48.005a3.981,3.981,0,0,1,.144,1.071,4.067,4.067,0,0,1-.565,2.072s0-.01.007-.014a4.3,4.3,0,0,0,.393-1.05C16.875,6.412,16.9,6.253,16.913,6.1Z" transform="translate(0 0)" fill="url(#radial-gradient)"/>
        </g>
        <path id="Path_7208-4" data-name="Path 7208" d="M.775,0c0,.165,0,.334,0,.5A4.275,4.275,0,0,0,.9,1.552,2.749,2.749,0,0,0,2.023,3.1a3.978,3.978,0,0,0,1.226.552,5.093,5.093,0,0,0,.759.148c.144.018.292.028.439.032.432.007.861.011,1.293.011q4.353,0,8.7,0c1.261,0,2.519,0,3.78.008h.084a.75.75,0,0,0-.028.074,4.028,4.028,0,0,1-.73,1.067,3.59,3.59,0,0,1-1.89,1.039,3.517,3.517,0,0,1-.741.077q-5.6,0-11.193-.008a3.531,3.531,0,0,1-2.488-.977A3.858,3.858,0,0,1,.07,3.037a3.307,3.307,0,0,1-.06-.488A3.642,3.642,0,0,1,.515.457C.6.309.683.165.768.018.768,0,.771,0,.775,0Z" transform="translate(0.309 11.308)" fill="url(#linear-gradient-40)"/>
        <path id="Path_7209-4" data-name="Path 7209" d="M.951,11.349a2.086,2.086,0,0,1-.334-.3A2.206,2.206,0,0,1,.062,9.941,2.92,2.92,0,0,1,.009,9.2,5.134,5.134,0,0,1,.167,8.188a.345.345,0,0,1,.042-.1q.958-1.659,1.913-3.318Q2.959,3.324,3.793,1.88A3.715,3.715,0,0,1,5.317.413,3.527,3.527,0,0,1,6.41.058,3.944,3.944,0,0,1,8.623.326a3.679,3.679,0,0,1,.9.573c.011.011.021.017.039.035H9.438a4.857,4.857,0,0,0-1.489.238,3.746,3.746,0,0,0-1.5.923,4.26,4.26,0,0,0-.664.881Q4.709,4.851,3.626,6.722,2.721,8.3,1.811,9.867c-.27.47-.544.941-.814,1.411A.611.611,0,0,0,.951,11.349Z" transform="translate(2.518 0.223)" fill="url(#linear-gradient-41)"/>
      </g>
      <g id="Group_197" data-name="Group 197" transform="translate(23.078 47.534) rotate(180)">
        <ellipse id="Ellipse_28-5" data-name="Ellipse 28" cx="3.124" cy="3.127" rx="3.124" ry="3.127" transform="translate(9.328 5.661)" fill="url(#linear-gradient-35)"/>
        <path id="Path_7201-5" data-name="Path 7201" d="M.323,0C.27,0,.218,0,.161,0S.053,0,0,0Z" transform="translate(5.227 12.562)" fill="none" stroke="#6ec6d8" stroke-width="1"/>
        <path id="Path_7202-5" data-name="Path 7202" d="M0,0H.319C.267,0,.214,0,.158,0S.053,0,0,0Z" transform="translate(5.227 12.562)" fill="none" stroke="#6ec6d8" stroke-width="1"/>
        <path id="Path_7203-5" data-name="Path 7203" d="M19.165,5.559a4.062,4.062,0,0,1-4.058,4.062H4.058A4.062,4.062,0,0,1,0,5.559a4.063,4.063,0,0,1,.47-1.9l0,0L.618,3.4h0L2.58,0a3.115,3.115,0,0,0-.312,1.367,2.917,2.917,0,0,0,.046.527,3.132,3.132,0,0,0,2.917,2.6c.053,0,.105,0,.161,0s.109,0,.161,0h13.47A4.106,4.106,0,0,1,19.165,5.559Z" transform="translate(0 8.075)" fill="url(#linear-gradient-36)"/>
        <ellipse id="Ellipse_29-5" data-name="Ellipse 29" cx="2.84" cy="2.843" rx="2.84" ry="2.843" transform="translate(9.612 5.945)" fill="url(#linear-gradient-37)"/>
        <path id="Path_7204-5" data-name="Path 7204" d="M10.2,1.212,6.288,8l-.221.383-1.383,2.4-1,1.736-.028.046H2.963a3.119,3.119,0,0,1-2.917-2.6A3.271,3.271,0,0,1,0,9.438,3.137,3.137,0,0,1,.312,8.071v0L.53,7.692l0,0L3.746,2.112l0-.007v0l0,0,.081-.141A4.058,4.058,0,0,1,10.2,1.212Z" transform="translate(2.261)" fill="url(#linear-gradient-38)"/>
        <path id="Path_7205-5" data-name="Path 7205" d="M5.617,3.718,4.683,5.341l-1,1.736-.028.046H2.963a3.119,3.119,0,0,1-2.917-2.6A3.273,3.273,0,0,1,0,4,3.137,3.137,0,0,1,.312,2.632v0L.53,2.252l0,0L1.829,0A3.207,3.207,0,0,0,1.8.453a3.3,3.3,0,0,0,3.3,3.3A2.825,2.825,0,0,0,5.617,3.718Z" transform="translate(2.264 5.439)" fill="url(#linear-gradient-39)"/>
        <g id="Group_181-5" data-name="Group 181" transform="translate(2.17 8.078)">
          <path id="Path_7206-5" data-name="Path 7206" d="M0,0Z" transform="translate(16.411 7.66)" fill="#fff"/>
          <path id="Path_7207-5" data-name="Path 7207" d="M16.9,6.1a3.366,3.366,0,0,0,.014-.531c-.007-.127-.021-.253-.035-.38a3.794,3.794,0,0,0-.105-.52l-.011-.032s0-.007-.011-.018H3.608a4.775,4.775,0,0,1-.5,0,4.974,4.974,0,0,1-.642-.088,3.169,3.169,0,0,1-.994-.4,2.936,2.936,0,0,1-.716-.6A3.205,3.205,0,0,1,.146,2.5,2.406,2.406,0,0,1,.024,2.01,4.141,4.141,0,0,1,0,1.42,3.731,3.731,0,0,1,.062.794C.083.689.108.583.129.478v0L.231.3h0L.406,0A3.114,3.114,0,0,0,.094,1.367a2.91,2.91,0,0,0,.046.527,3.116,3.116,0,0,0,1.236,2h0a3.111,3.111,0,0,0,1.682.6c.053,0,.105,0,.161,0s.109,0,.161,0H16.85a3.986,3.986,0,0,1,.144,1.072,4.076,4.076,0,0,1-.565,2.073s0-.011.007-.014a4.3,4.3,0,0,0,.393-1.051C16.861,6.409,16.882,6.251,16.9,6.1Z" transform="translate(0)" fill="url(#radial-gradient)"/>
        </g>
        <path id="Path_7208-5" data-name="Path 7208" d="M.774,0c0,.165,0,.334,0,.5A4.282,4.282,0,0,0,.9,1.553,2.748,2.748,0,0,0,2.02,3.106a3.967,3.967,0,0,0,1.225.552A5.075,5.075,0,0,0,4,3.805c.144.018.291.028.439.032.432.007.86.01,1.292.01q4.35-.005,8.7-.007c1.26,0,2.517,0,3.777.007h.084a.739.739,0,0,0-.028.074,4.034,4.034,0,0,1-.73,1.068,3.59,3.59,0,0,1-1.889,1.04,3.515,3.515,0,0,1-.741.077q-5.592,0-11.185,0a3.524,3.524,0,0,1-2.486-.977A3.859,3.859,0,0,1,.068,3.039a3.307,3.307,0,0,1-.06-.488A3.65,3.65,0,0,1,.514.457C.6.309.683.165.767.018.767,0,.77,0,.774,0Z" transform="translate(0.304 11.315)" fill="url(#linear-gradient-40)"/>
        <path id="Path_7209-5" data-name="Path 7209" d="M.946,11.356a2.082,2.082,0,0,1-.334-.3A2.207,2.207,0,0,1,.057,9.947,2.925,2.925,0,0,1,0,9.205,5.144,5.144,0,0,1,.163,8.193.346.346,0,0,1,.2,8.1q.958-1.66,1.913-3.321.837-1.449,1.671-2.9A3.719,3.719,0,0,1,5.313.41,3.524,3.524,0,0,1,6.4.055,3.936,3.936,0,0,1,8.616.322a3.672,3.672,0,0,1,.9.573c.01.011.021.017.039.035H9.431a4.849,4.849,0,0,0-1.488.239,3.746,3.746,0,0,0-1.5.924,4.272,4.272,0,0,0-.664.882Q4.7,4.852,3.621,6.725,2.715,8.3,1.806,9.873c-.27.471-.544.942-.814,1.413A.617.617,0,0,0,.946,11.356Z" transform="translate(2.516 0.222)" fill="url(#linear-gradient-41)"/>
      </g>
      <g id="Group_198" data-name="Group 198" transform="translate(40.835 41.451) rotate(120)">
        <ellipse id="Ellipse_28-6" data-name="Ellipse 28" cx="3.119" cy="3.118" rx="3.119" ry="3.118" transform="translate(9.331 5.653)" fill="url(#linear-gradient-35)"/>
        <path id="Path_7201-6" data-name="Path 7201" d="M.323,0C.27,0,.218,0,.162,0S.053,0,0,0Z" transform="translate(5.225 12.551)" fill="none" stroke="#6ec6d8" stroke-width="1"/>
        <path id="Path_7202-6" data-name="Path 7202" d="M0,0H.32C.267,0,.214,0,.158,0S.053,0,0,0Z" transform="translate(5.225 12.551)" fill="none" stroke="#6ec6d8" stroke-width="1"/>
        <path id="Path_7203-6" data-name="Path 7203" d="M19.175,5.547a4.066,4.066,0,0,1-4.063,4.061l-11.056,0A4.058,4.058,0,0,1,0,5.555a4.057,4.057,0,0,1,.472-1.9l0,0L.617,3.4h0L2.582,0a3.111,3.111,0,0,0-.313,1.366,2.908,2.908,0,0,0,.045.527A3.13,3.13,0,0,0,5.232,4.486c.053,0,.105,0,.162,0s.109,0,.162,0l13.48-.005A4.1,4.1,0,0,1,19.175,5.547Z" transform="translate(-0.004 8.069)" fill="url(#linear-gradient-36)"/>
        <ellipse id="Ellipse_29-6" data-name="Ellipse 29" cx="2.835" cy="2.834" rx="2.835" ry="2.834" transform="translate(9.615 5.937)" fill="url(#linear-gradient-37)"/>
        <path id="Path_7204-6" data-name="Path 7204" d="M10.2,1.207,6.288,7.989l-.221.383-1.385,2.4-1,1.735-.028.046H2.959A3.116,3.116,0,0,1,.041,9.958,3.263,3.263,0,0,1,0,9.431,3.133,3.133,0,0,1,.309,8.065v0l.218-.376,0,0L3.747,2.108l0-.007v0l0,0,.081-.14A4.065,4.065,0,0,1,10.2,1.207Z" transform="translate(2.262 -0.001)" fill="url(#linear-gradient-38)"/>
        <path id="Path_7205-6" data-name="Path 7205" d="M5.619,3.713,4.684,5.335l-1,1.735-.028.046H2.962A3.116,3.116,0,0,1,.044,4.523,3.265,3.265,0,0,1,0,4,3.133,3.133,0,0,1,.311,2.63v0l.218-.376,0,0L1.83,0A3.2,3.2,0,0,0,1.8.452a3.3,3.3,0,0,0,3.3,3.3A2.827,2.827,0,0,0,5.619,3.713Z" transform="translate(2.263 5.434)" fill="url(#linear-gradient-39)"/>
        <g id="Group_181-6" data-name="Group 181" transform="translate(2.168 8.071)">
          <path id="Path_7206-6" data-name="Path 7206" d="M0,0Z" transform="translate(16.419 7.648)" fill="#fff"/>
          <path id="Path_7207-6" data-name="Path 7207" d="M16.908,6.086a3.356,3.356,0,0,0,.014-.53c-.007-.126-.021-.253-.035-.379a3.785,3.785,0,0,0-.105-.52l-.01-.032s0-.007-.011-.018h-.07L3.609,4.613a4.784,4.784,0,0,1-.5,0,4.991,4.991,0,0,1-.643-.088,3.17,3.17,0,0,1-.994-.4,2.933,2.933,0,0,1-.716-.6A3.2,3.2,0,0,1,.146,2.5a2.4,2.4,0,0,1-.123-.492A4.128,4.128,0,0,1,0,1.419,3.722,3.722,0,0,1,.062.794C.083.688.108.583.129.477v0L.231.3h0L.406,0A3.11,3.11,0,0,0,.093,1.366a2.906,2.906,0,0,0,.045.527A3.111,3.111,0,0,0,1.375,3.887h0a3.114,3.114,0,0,0,1.683.6c.053,0,.105,0,.162,0s.109,0,.162,0l13.48-.005A3.977,3.977,0,0,1,17,5.548a4.071,4.071,0,0,1-.566,2.072s0-.01.007-.014a4.3,4.3,0,0,0,.394-1.05C16.87,6.4,16.891,6.24,16.908,6.086Z" transform="translate(0 0)" fill="url(#radial-gradient)"/>
        </g>
        <path id="Path_7208-6" data-name="Path 7208" d="M.774,0c0,.165,0,.334,0,.5A4.272,4.272,0,0,0,.9,1.552,2.743,2.743,0,0,0,2.02,3.1a3.969,3.969,0,0,0,1.226.551A5.083,5.083,0,0,0,4,3.8c.144.017.292.028.439.031.432.007.861.01,1.293.01q4.353-.007,8.7-.01c1.261,0,2.519,0,3.78.005H18.3a.751.751,0,0,0-.028.074,4.036,4.036,0,0,1-.731,1.068,3.6,3.6,0,0,1-1.89,1.04,3.518,3.518,0,0,1-.741.078q-5.6,0-11.193,0a3.526,3.526,0,0,1-2.487-.975A3.851,3.851,0,0,1,.067,3.037a3.3,3.3,0,0,1-.06-.488A3.646,3.646,0,0,1,.514.456C.6.309.683.165.767.017.767,0,.771,0,.774,0Z" transform="translate(0.299 11.306)" fill="url(#linear-gradient-40)"/>
        <path id="Path_7209-6" data-name="Path 7209" d="M.941,11.347a2.08,2.08,0,0,1-.334-.295A2.2,2.2,0,0,1,.053,9.94,2.919,2.919,0,0,1,0,9.2,5.137,5.137,0,0,1,.159,8.187a.346.346,0,0,1,.042-.1q.96-1.66,1.916-3.319Q2.955,3.321,3.79,1.876A3.724,3.724,0,0,1,5.316.407,3.532,3.532,0,0,1,6.408.052,3.944,3.944,0,0,1,8.621.318a3.671,3.671,0,0,1,.9.572c.011.011.021.017.039.035H9.436a4.86,4.86,0,0,0-1.49.239,3.753,3.753,0,0,0-1.5.924,4.276,4.276,0,0,0-.664.882Q4.7,4.846,3.62,6.718,2.713,8.293,1.8,9.865c-.271.471-.545.941-.816,1.412A.615.615,0,0,0,.941,11.347Z" transform="translate(2.517 0.221)" fill="url(#linear-gradient-41)"/>
      </g>
    </g>
  </g>
</svg>
