<svg xmlns="http://www.w3.org/2000/svg" xmlns:svgjs="http://svgjs.com/svgjs" xmlns:xlink="http://www.w3.org/1999/xlink" width="288" height="288"><svg xmlns="http://www.w3.org/2000/svg" width="288" height="288" viewBox="0 0 14 18.008"><path fill="none" stroke="#fff" stroke-linecap="round" stroke-linejoin="round" stroke-width="2" d="M0,8C0,5.794.01,3.586,0,1.378A1.226,1.226,0,0,1,.618.139,1.275,1.275,0,0,1,2.048.351q4.644,3.312,9.294,6.615a1.146,1.146,0,0,1,.006,2.069q-4.665,3.322-9.335,6.635a1.266,1.266,0,0,1-1.355.213A1.189,1.189,0,0,1,0,14.671C.01,12.448,0,10.225,0,8" class="colorStroke141414 svgStroke" transform="translate(1.001 1.003)"/></svg></svg>